<svg width="92" height="92" viewBox="0 0 92 92" fill="none" xmlns="http://www.w3.org/2000/svg">
<path d="M59.8755 20.8651C59.8755 20.8651 83.1487 15.3221 89.0429 31.2807C89.0429 31.2807 96.1111 52.9457 78.059 59.3635C78.059 59.3635 69.0288 61.6853 67.3869 50.1293C67.3911 50.1293 67.6743 27.0008 59.8755 20.8651Z" fill="#AD8C7E"/>
<path d="M62.835 27.4749C62.835 27.4749 77.1765 24.0576 80.8091 33.8968C80.8091 33.8968 85.5623 47.9259 74.0406 51.2002C74.0406 51.2002 68.4788 52.6309 67.4732 45.5101C67.4568 45.5101 67.6292 31.2602 62.835 27.4749Z" fill="#E5D3C3"/>
<path d="M32.5348 20.8651C32.5348 20.8651 9.2575 15.3221 3.36326 31.2807C3.36326 31.2807 -3.7049 52.9457 14.3472 59.3635C14.3472 59.3635 23.3774 61.6853 25.0193 50.1293C25.0275 50.1293 24.7524 27.0008 32.5348 20.8651Z" fill="#AD8C7E"/>
<path d="M29.5874 27.4749C29.5874 27.4749 15.2417 24.0576 11.6091 33.8968C11.6091 33.8968 6.85597 47.9259 18.3776 51.2002C18.3776 51.2002 23.9394 52.6309 24.945 45.5101C24.9615 45.5101 24.7891 31.2602 29.5874 27.4749Z" fill="#E5D3C3"/>
<path d="M45.7063 17.926C20.0976 17.926 14.4209 38.3647 14.4209 63.9213V83.8531C14.4209 88.3701 18.2423 91.9918 22.8477 91.9918H69.7266C74.332 91.9918 77.1149 88.3496 77.1149 83.8368L77.1354 63.9131C77.1395 38.3647 71.6558 17.926 45.7063 17.926Z" fill="#D2BCAC"/>
<path d="M41.9546 91.9918C43.1317 90.2475 43.7539 88.1906 43.7401 86.0891C43.6848 83.2564 42.5161 80.5582 40.4849 78.5744C38.4537 76.5905 35.7222 75.4792 32.8772 75.4792C30.0323 75.4792 27.3008 76.5905 25.2696 78.5744C23.2384 80.5582 22.0697 83.2564 22.0144 86.0891C22.0013 88.1931 22.6233 90.2524 23.7999 92L41.9546 91.9918Z" fill="#E5D3C3"/>
<path d="M69.8662 91.9918C71.0433 90.2475 71.6655 88.1906 71.6518 86.0891C71.5965 83.2564 70.4277 80.5582 68.3965 78.5744C66.3653 76.5905 63.6339 75.4792 60.7889 75.4792C57.9439 75.4792 55.2124 76.5905 53.1812 78.5744C51.1501 80.5582 49.9813 83.2564 49.926 86.0891C49.9129 88.1931 50.535 90.2524 51.7115 92L69.8662 91.9918Z" fill="#E5D3C3"/>
<path d="M39.5289 55.6967C39.5289 55.6967 37.4766 57.4667 36.6557 57.7733C36.6557 57.7733 35.4243 58.5091 35.8922 59.5474C35.8922 59.5474 35.5351 61.1825 39.7177 60.3404L39.5289 55.6967Z" fill="#FFFFEF"/>
<path d="M53.3084 55.6967C53.3084 55.6967 55.3608 57.4667 56.1817 57.7733C56.1817 57.7733 57.4131 58.5091 56.941 59.5474C56.941 59.5474 57.2981 61.1825 53.1196 60.3404L53.3084 55.6967Z" fill="#FFFFEF"/>
<path d="M46.6421 46.949C46.6421 46.949 40.3497 46.8345 38.909 53.1828C38.909 53.1828 38.24 68.1971 47.0813 72.8734C47.0813 72.8734 60.0437 79.2299 65.1417 66.1164C65.2662 65.6049 65.283 65.0732 65.1909 64.5549C64.7805 62.7277 62.1658 59.9725 58.7877 62.9198C58.7877 62.9198 56.9447 65.119 55.3809 63.4675C55.3809 63.4675 52.4338 61.2683 53.739 54.8465C53.7185 54.8383 54.7241 47.648 46.6421 46.949Z" fill="#E5D3C3"/>
<path d="M52.2122 52.4797C52.1997 52.5206 52.179 52.5586 52.1513 52.5913C52.1236 52.6239 52.0895 52.6507 52.0511 52.6698C52.0127 52.6889 51.9708 52.7001 51.9279 52.7025C51.885 52.705 51.8421 52.6987 51.8017 52.6841C50.0555 51.9186 48.1684 51.5233 46.2605 51.5233C44.3526 51.5233 42.4655 51.9186 40.7193 52.6841C40.6789 52.6993 40.6359 52.7061 40.5928 52.7039C40.5497 52.7017 40.5076 52.6907 40.469 52.6715C40.4305 52.6523 40.3963 52.6253 40.3687 52.5923C40.3411 52.5593 40.3207 52.5209 40.3088 52.4797C40.2805 52.3885 40.2852 52.2904 40.3219 52.2023C40.3586 52.1143 40.4251 52.0417 40.5099 51.9973C42.3249 51.2026 44.286 50.7923 46.2687 50.7923C48.2514 50.7923 50.2125 51.2026 52.0275 51.9973C52.1123 52.0417 52.1788 52.1143 52.2155 52.2023C52.2522 52.2904 52.2569 52.3885 52.2286 52.4797H52.2122Z" fill="#D2BCAC"/>
<path d="M52.2122 55.4147C52.1997 55.4556 52.179 55.4936 52.1513 55.5263C52.1236 55.5589 52.0895 55.5857 52.0511 55.6048C52.0127 55.6239 51.9708 55.6351 51.9279 55.6375C51.885 55.64 51.8421 55.6337 51.8017 55.6191C50.0555 54.8536 48.1684 54.4583 46.2605 54.4583C44.3526 54.4583 42.4655 54.8536 40.7193 55.6191C40.6789 55.6343 40.6359 55.6411 40.5928 55.6389C40.5497 55.6367 40.5076 55.6257 40.469 55.6065C40.4305 55.5873 40.3963 55.5603 40.3687 55.5273C40.3411 55.4943 40.3207 55.4559 40.3088 55.4147C40.2805 55.3235 40.2852 55.2254 40.3219 55.1373C40.3586 55.0493 40.4251 54.9767 40.5099 54.9323C42.3249 54.1376 44.286 53.7273 46.2687 53.7273C48.2514 53.7273 50.2125 54.1376 52.0275 54.9323C52.1123 54.9767 52.1788 55.0493 52.2155 55.1373C52.2522 55.2254 52.2569 55.3235 52.2286 55.4147H52.2122Z" fill="#D2BCAC"/>
<path d="M52.2122 57.9859C52.2002 58.0272 52.1798 58.0656 52.1523 58.0987C52.1247 58.1318 52.0907 58.159 52.0523 58.1785C52.0138 58.1981 51.9717 58.2095 51.9286 58.2123C51.8855 58.215 51.8424 58.2089 51.8017 58.1943C50.0555 57.4289 48.1684 57.0336 46.2605 57.0336C44.3526 57.0336 42.4655 57.4289 40.7193 58.1943C40.6786 58.2089 40.6354 58.215 40.5923 58.2123C40.5493 58.2095 40.5072 58.1981 40.4687 58.1785C40.4303 58.159 40.3962 58.1318 40.3687 58.0987C40.3412 58.0656 40.3208 58.0272 40.3088 57.9859C40.2805 57.8947 40.2852 57.7966 40.3219 57.7085C40.3586 57.6204 40.4251 57.5479 40.5099 57.5035C42.3249 56.7088 44.286 56.2985 46.2687 56.2985C48.2514 56.2985 50.2125 56.7088 52.0275 57.5035C52.1123 57.5479 52.1788 57.6204 52.2155 57.7085C52.2522 57.7966 52.2569 57.8947 52.2286 57.9859H52.2122Z" fill="#D2BCAC"/>
<path d="M42.2257 30.1892C42.0626 30.2812 41.8711 30.3095 41.6883 30.2687C41.5055 30.2279 41.3445 30.1209 41.2364 29.9685C39.2252 26.776 34.4802 26.5879 32.1283 29.7028C31.9066 29.993 31.6521 30.2138 31.5331 30.1565L31.4674 30.1238C31.3484 30.0666 31.4059 29.6823 31.6398 29.3063C34.1026 25.4597 39.8491 25.2717 42.6402 29.0406C42.7039 29.1206 42.7491 29.2136 42.7726 29.313C42.7961 29.4124 42.7973 29.5157 42.7761 29.6156C42.755 29.7155 42.7119 29.8096 42.6502 29.8911C42.5884 29.9725 42.5093 30.0394 42.4186 30.087L42.2257 30.1892Z" fill="black"/>
<path d="M50.0245 30.1892C50.1883 30.2805 50.3802 30.3085 50.5635 30.2677C50.7467 30.227 50.9084 30.1205 51.0178 29.9685C53.0291 26.776 57.774 26.5879 60.1219 29.7028C60.3476 29.993 60.598 30.2138 60.7211 30.1565L60.7827 30.1238C60.9017 30.0666 60.8484 29.6823 60.6103 29.3063C58.1475 25.4597 52.4011 25.2717 49.6099 29.0406C49.5462 29.1206 49.501 29.2136 49.4775 29.313C49.4541 29.4124 49.4528 29.5157 49.474 29.6156C49.4952 29.7155 49.5382 29.8096 49.6 29.8911C49.6618 29.9725 49.7408 30.0394 49.8316 30.087L50.0245 30.1892Z" fill="black"/>
<path d="M62.2071 39.4316C62.2071 43.9895 59.1574 47.6848 55.3935 47.6848C51.6295 47.6848 48.5757 44.0058 48.5757 39.4316C48.5757 34.8574 51.6295 31.1785 55.3935 31.1785C59.1574 31.1785 62.2071 34.8738 62.2071 39.4316Z" fill="#E5D3C3"/>
<path d="M59.4321 41.8229C59.4321 44.5944 57.581 46.8386 55.2947 46.8386C53.0084 46.8386 51.1572 44.5944 51.1572 41.8229C51.1572 39.0514 53.0084 36.8113 55.2947 36.8113C57.581 36.8113 59.4321 39.0555 59.4321 41.8229Z" fill="black"/>
<path d="M55.2289 45.3711C56.0541 45.3711 56.723 44.5604 56.723 43.5602C56.723 42.5601 56.0541 41.7494 55.2289 41.7494C54.4038 41.7494 53.7349 42.5601 53.7349 43.5602C53.7349 44.5604 54.4038 45.3711 55.2289 45.3711Z" fill="white"/>
<path d="M44.1588 39.4316C44.1588 43.9895 41.105 47.6848 37.341 47.6848C33.5771 47.6848 30.5273 44.0058 30.5273 39.4316C30.5273 34.8574 33.5771 31.1785 37.341 31.1785C41.105 31.1785 44.1588 34.8738 44.1588 39.4316Z" fill="#E5D3C3"/>
<path d="M41.405 41.8229C41.405 44.5944 39.5538 46.8386 37.2676 46.8386C34.9813 46.8386 33.1055 44.5944 33.1055 41.8229C33.1055 39.0514 34.9608 36.8113 37.247 36.8113C39.5333 36.8113 41.405 39.0555 41.405 41.8229Z" fill="black"/>
<path d="M37.1811 45.3711C38.0063 45.3711 38.6752 44.5604 38.6752 43.5602C38.6752 42.5601 38.0063 41.7494 37.1811 41.7494C36.3559 41.7494 35.687 42.5601 35.687 43.5602C35.687 44.5604 36.3559 45.3711 37.1811 45.3711Z" fill="white"/>
<path d="M64.4933 64.7225C64.4933 64.7225 63.8407 62.1554 61.2096 62.3843C59.3174 62.5478 59.379 63.8273 59.8756 64.8819C60.401 66.006 62.5682 66.7868 63.4302 66.5456C64.0993 66.3617 64.6164 65.9733 64.4933 64.7225Z" fill="#D2BCAC"/>
</svg>
