<svg width="92" height="92" viewBox="0 0 92 92" fill="none" xmlns="http://www.w3.org/2000/svg">
<path d="M44.0976 17.9941C18.4889 17.9941 12.8081 38.4129 12.8081 63.9486V83.8611C12.8081 88.3532 16.6336 91.9918 21.239 91.9918H68.122C72.7274 91.9918 75.5103 88.3532 75.5103 83.8243V63.92C75.5308 38.4088 70.043 17.9941 44.0976 17.9941Z" fill="#B79C79"/>
<path d="M39.5251 91.9918C40.7022 90.2478 41.3244 88.1915 41.3106 86.0908C41.3106 83.2239 40.1659 80.4744 38.1283 78.4472C36.0908 76.4199 33.3272 75.2811 30.4457 75.2811C27.5641 75.2811 24.8006 76.4199 22.763 78.4472C20.7254 80.4744 19.5807 83.2239 19.5807 86.0908C19.5688 88.1938 20.1908 90.2521 21.3662 92L39.5251 91.9918Z" fill="#D6C5AB"/>
<path d="M67.4362 91.9918C68.6134 90.2478 69.2355 88.1915 69.2217 86.0908C69.2217 83.2239 68.077 80.4744 66.0395 78.4472C64.0019 76.4199 61.2384 75.2811 58.3568 75.2811C55.4752 75.2811 52.7117 76.4199 50.6741 78.4472C48.6366 80.4744 47.4919 83.2239 47.4919 86.0908C47.48 88.1938 48.1019 90.2521 49.2774 92L67.4362 91.9918Z" fill="#D6C5AB"/>
<path d="M54.5152 12.5545C54.5152 12.5545 54.1827 11.4846 55.6521 9.62239C55.6521 9.62239 58.6485 5.76323 54.8682 3.0312C54.8682 3.0312 53.6368 2.04293 51.2191 1.98984C48.8138 2.04293 47.5907 3.0312 47.5907 3.0312C43.8103 5.76323 46.819 9.62239 46.819 9.62239C48.2884 11.4846 47.9519 12.5545 47.9519 12.5545C47.0981 17.4101 45.5835 20.1013 45.5835 20.1013H51.2191H56.8753C56.8753 20.1013 55.3607 17.4101 54.5152 12.5545Z" fill="#B79C79"/>
<path d="M47.3238 10.3452C48.5634 9.79815 49.9015 9.5067 51.2574 9.48845C52.6133 9.4702 53.9589 9.72553 55.2129 10.239C55.3476 10.0255 55.4942 9.81961 55.6521 9.62239C55.6521 9.62239 58.6444 5.76323 54.8681 3.0312C54.8681 3.0312 53.6367 2.04293 51.2191 1.98984C48.8138 2.04293 47.5906 3.0312 47.5906 3.0312C43.8102 5.76323 46.8189 9.62239 46.8189 9.62239C47.0002 9.85409 47.1687 10.0954 47.3238 10.3452Z" fill="#422E1D"/>
<path d="M41.2695 12.5545C41.2695 12.5545 40.933 11.4846 42.4065 9.62239C42.4065 9.62239 45.3988 5.76323 41.6184 3.0312C41.6184 3.0312 40.3871 2.04293 37.9735 1.98984C35.5682 2.04293 34.3451 3.0312 34.3451 3.0312C30.5647 5.76323 33.5734 9.62239 33.5734 9.62239C35.0428 11.4846 34.7063 12.5545 34.7063 12.5545C33.8525 17.4101 32.3379 20.1013 32.3379 20.1013H37.9735H43.6297C43.6297 20.1013 42.1233 17.4101 41.2695 12.5545Z" fill="#B79C79"/>
<path d="M34.0782 10.3452C35.3171 9.79826 36.6545 9.50686 38.0098 9.48861C39.365 9.47036 40.7099 9.72564 41.9632 10.239C42.0904 10.043 42.2341 9.83066 42.4065 9.62239C42.4065 9.62239 45.3987 5.76323 41.6184 3.0312C41.6184 3.0312 40.387 2.04293 37.9735 1.98984C35.5682 2.04293 34.345 3.0312 34.345 3.0312C30.5646 5.76323 33.5733 9.62239 33.5733 9.62239C33.7546 9.85409 33.9231 10.0954 34.0782 10.3452Z" fill="#422E1D"/>
<path d="M69.0332 30.0575C69.0332 30.0575 70.9583 27.4113 77.9361 24.083C80.2108 22.7097 82.3786 21.1685 84.4214 19.4724C84.4214 19.4724 88.2428 16.5444 89.3962 20.8691C89.3962 20.8691 91.1776 27.0601 86.6954 34.6477C86.6954 34.6477 83.0833 41.9045 74.5868 42.3701L69.0332 30.0575Z" fill="#E1C484"/>
<path d="M88.8134 24.377C88.6492 24.7854 89.1212 25.2918 89.4906 25.4551L89.6835 25.5531C89.744 24.8347 89.7591 24.1132 89.7287 23.3928C89.3291 23.6195 89.0095 23.9631 88.8134 24.377Z" fill="#7A5532"/>
<path d="M85.5749 32.2464C86.0264 32.2872 86.5394 31.838 86.8062 31.6788C87.073 31.5195 87.7339 31.5399 88.2593 31.4746C88.9373 29.8126 89.3914 28.0687 89.6097 26.2882C89.1664 26.0023 88.4029 25.8798 88.1402 26.0677C87.779 26.3331 87.4589 26.5577 86.9869 26.9253C86.5148 27.2928 85.1028 27.8809 84.8155 28.5955C84.5282 29.3102 84.9592 29.8778 85.0413 30.2658C85.1234 30.6537 84.5282 31.348 84.4461 31.6788C84.364 32.0095 85.1234 32.2097 85.5749 32.2464Z" fill="#7A5532"/>
<path d="M82.6848 34.958C82.5574 35.5493 82.4683 36.1481 82.418 36.7508C82.3359 37.5267 82.7464 37.4246 82.8285 38.0739C82.834 38.5375 82.7402 38.9969 82.5535 39.4216C84.248 38.1342 85.6578 36.5133 86.695 34.6599C87.1279 33.9293 87.5199 33.1754 87.869 32.4016C87.7007 32.4016 87.5652 32.4016 87.5406 32.4016C86.8264 32.177 85.7387 32.7855 85.1845 33.0509C84.6304 33.3164 82.808 34.4271 82.6848 34.958Z" fill="#7A5532"/>
<path d="M87.8692 21.5919C87.3204 21.4049 86.8373 21.0646 86.4777 20.6118C86.0262 19.9379 85.0616 20.3055 84.7948 20.5097C84.4034 20.7716 83.9663 20.9586 83.5059 21.061C82.9929 21.1835 82.9929 21.4081 82.7466 21.5919C82.5003 21.7756 82.7466 21.5919 82.5003 21.7838C82.254 21.9757 82.2951 23.5276 82.6029 24.3035C82.9108 25.0794 82.9108 24.769 82.7671 25.2183C82.6234 25.6675 82.4387 25.9329 82.5208 26.4434C82.6029 26.9538 83.0955 26.7497 83.5265 27.0845C83.9574 27.4194 84.1216 27.3581 84.6306 27.256C85.1396 27.154 85.0205 26.7292 85.1847 26.3413C85.3489 25.9533 85.903 26.3004 86.334 26.1371C86.8517 25.915 87.3454 25.6414 87.8076 25.3203C88.1154 25.0957 88.1975 24.4219 88.2181 23.9768C88.2386 23.5317 88.8337 22.2412 88.7599 21.8736C88.686 21.5061 88.3207 21.7471 87.8692 21.5919Z" fill="#7A5532"/>
<path d="M83.0094 27.9544C82.529 27.8728 82.0575 27.7457 81.6015 27.5746C81.1623 27.3459 79.5492 27.6685 79.3727 27.9544C79.122 28.4171 78.8481 28.8669 78.5518 29.302C78.1003 29.9105 77.9238 30.6456 78.0346 30.9723C78.1454 31.299 78.757 31.1765 79.266 31.5726C79.6784 31.8907 80.0337 32.2759 80.3168 32.712C80.5754 33.0795 81.0145 32.9978 81.425 32.9856C81.8355 32.9733 81.9422 33.2429 82.2008 33.447C82.4594 33.6512 83.5389 33.6104 83.7318 33.3776C83.9247 33.1448 83.7031 32.6711 83.6251 31.9524C83.5471 31.2336 83.9658 30.7803 84.1833 30.4169C84.4009 30.0534 83.9904 29.0162 83.8262 28.567C83.662 28.1177 83.0094 27.9544 83.0094 27.9544Z" fill="#7A5532"/>
<path d="M81.5606 34.1862C81.1501 33.8962 80.0419 34.2189 79.7833 34.7783C79.5247 35.3378 78.7037 35.7707 78.2687 35.9463C77.8336 36.1219 77.4477 37.0203 77.2302 37.4818C77.0126 37.9432 76.1507 38.6375 75.9988 39.3031C75.8469 39.9688 76.8197 39.8626 77.3903 39.932C78.1596 40.0517 78.9009 40.3091 79.578 40.6916L79.9639 41.0102C80.4596 40.7749 80.9407 40.5104 81.4046 40.2179C81.2076 39.7238 81.3143 39.638 81.5606 39.2501C81.9265 38.6124 82.115 37.8893 82.1065 37.1551C82.0531 36.4241 81.696 36.2852 81.6673 35.9055C81.6385 35.5257 82.2707 35.2398 82.2419 34.7906C82.2132 34.3414 81.5606 34.1862 81.5606 34.1862Z" fill="#7A5532"/>
<path d="M78.5394 31.9932C77.8729 31.442 77.2587 30.8309 76.7046 30.1678C76.4173 29.8288 76.0356 30.0289 75.6538 30.1678C75.2679 30.3442 74.8471 30.4321 74.4225 30.425C74.0407 30.372 73.8642 30.6292 73.6015 30.9968C73.3388 31.3643 72.3701 32.0422 72.1239 32.3362C71.8776 32.6303 72.3701 33.251 72.5343 33.7125C72.6985 34.1739 72.4358 34.2148 72.2183 34.9907C72.0007 35.7666 72.5466 35.7789 72.834 35.9585C73.285 36.2096 73.7609 36.4135 74.2542 36.567C74.7298 36.7942 75.1468 37.1267 75.4732 37.539C75.5501 37.6212 75.6431 37.6868 75.7466 37.7317C75.85 37.7765 75.9617 37.7997 76.0746 37.7997C76.1874 37.7997 76.2991 37.7765 76.4025 37.7317C76.506 37.6868 76.5991 37.6212 76.6759 37.539C77.0043 37.2245 77.2218 36.2852 77.386 35.8238C77.5502 35.3623 78.8883 34.6681 79.3685 34.37C79.8488 34.0718 79.779 33.2551 79.779 33.2551C79.701 32.6997 79.0196 32.2913 78.5394 31.9932Z" fill="#7A5532"/>
<path d="M76.1464 42.2026C76.203 42.1603 76.2634 42.1233 76.327 42.0924C76.761 41.8637 77.1393 41.5431 77.4353 41.1531C77.583 40.855 77.1479 40.7039 76.8606 40.4752C76.5733 40.2465 76.1628 40.3772 75.5348 40.173C75.1479 40.0392 74.8162 39.7823 74.5908 39.442C74.5497 38.8825 75.4117 39.005 75.465 38.5844C75.5184 38.1638 73.7452 37.5921 73.4127 37.5798C73.2583 37.5633 73.1021 37.5823 72.9562 37.6354C72.8103 37.6885 72.6786 37.7743 72.5713 37.8861L74.5949 42.3782C75.1147 42.3459 75.6326 42.2873 76.1464 42.2026Z" fill="#7A5532"/>
<path d="M70.2275 32.7038L71.1757 34.807C71.4261 33.7574 71.3071 33.0754 71.0526 32.8631C70.8032 32.7198 70.5127 32.6637 70.2275 32.7038Z" fill="#7A5532"/>
<path d="M71.8613 36.322L72.2184 37.1388C72.2376 37.1199 72.2505 37.0957 72.2554 37.0693C72.2759 36.8815 72.1117 36.6406 71.8613 36.322Z" fill="#7A5532"/>
<path d="M74.3321 27.7788C74.5784 28.1586 74.3855 28.718 74.4019 29.2203C74.4183 29.7226 75.5348 29.6695 76.0684 29.6287C76.602 29.5879 77.8169 29.4531 77.9893 29.1101C78.1617 28.767 78.4737 27.5623 78.3629 27.2234C78.252 26.8844 77.8169 26.57 77.3244 26.231C76.887 25.9054 76.4678 25.5564 76.0684 25.1856C76.0434 25.1392 76.016 25.0942 75.9863 25.0508C74.7549 25.696 73.7493 26.3004 72.8955 26.8558C73.4369 27.0544 73.9274 27.3696 74.3321 27.7788Z" fill="#7A5532"/>
<path d="M76.8398 24.618L76.9671 24.6506C77.6238 24.7895 77.6402 25.059 77.9891 25.3734C78.338 25.6879 78.8388 26.325 79.3067 26.7129C79.7746 27.1009 81.0799 26.7578 81.4247 26.3045C81.7695 25.8512 82.1348 25.3408 81.9706 24.8916C81.7531 24.4771 81.4641 24.1039 81.1169 23.7889C80.8377 23.4622 81.3672 23.2621 81.6956 22.7598C82.024 22.2575 82.1471 22.1064 82.0527 21.8206C82.0183 21.7485 81.9634 21.6881 81.8948 21.6467C81.8263 21.6053 81.747 21.5849 81.6669 21.5878C80.4661 22.4821 79.2193 23.3136 77.9317 24.0789C77.554 24.2627 77.1928 24.4505 76.8398 24.618Z" fill="#7A5532"/>
<path d="M71.3933 31.5154C71.6171 31.5276 71.8411 31.4957 72.0524 31.4214C72.2638 31.3471 72.4582 31.2319 72.6246 31.0825C72.7191 30.9029 72.5672 30.6456 72.7601 30.3761C72.953 30.1065 73.7042 29.5593 73.7042 29.449C73.7042 29.3388 73.6221 28.8406 73.5646 28.4036C73.5071 27.9666 73.343 27.6971 73.2773 27.7502C72.9653 28.0116 72.2019 27.9176 71.6765 27.7175C69.7145 29.1428 69.0454 30.0575 69.0454 30.0575L69.8869 31.9197C70.1681 31.7993 70.4422 31.663 70.7078 31.5113C71.0526 31.3194 70.9869 31.446 71.3933 31.5154Z" fill="#7A5532"/>
<path d="M77.8828 41.5084C77.5503 41.6962 77.5996 41.7248 77.5298 41.9167C77.9897 41.7938 78.4432 41.648 78.8884 41.4798C78.5585 41.3844 78.2067 41.3944 77.8828 41.5084Z" fill="#7A5532"/>
<path d="M87.2738 20.4934C87.6022 21.1999 88.3369 21.2284 88.7802 21.3101C89.1015 21.4113 89.3866 21.6028 89.6011 21.8614C89.5578 21.5269 89.4934 21.1955 89.4082 20.8691C88.8951 18.9456 87.8525 18.4597 86.8551 18.5087C86.794 18.6402 86.7446 18.7769 86.7074 18.917C86.5062 19.6766 86.9413 19.7869 87.2738 20.4934Z" fill="#7A5532"/>
<path d="M82.5986 20.8976C82.9516 20.8976 83.0091 20.6404 83.5263 20.4362C84.1543 20.1952 84.7577 20.1666 85.3036 19.9298C85.8495 19.6929 86.067 19.3254 86.1491 18.6434C86.1491 18.6434 86.1491 18.6434 86.1491 18.623C85.5269 18.8048 84.9409 19.0922 84.417 19.4724C83.7712 19.9951 83.1651 20.4702 82.5986 20.8976Z" fill="#7A5532"/>
<path d="M71.6436 39.7728C71.6436 39.7728 79.2699 32.5854 83.0831 25.0712C83.0831 25.0712 84.7537 20.9875 86.6952 21.012C86.6952 21.012 88.3658 20.477 88.2344 24.1401C88.2344 24.1401 88.2344 37.5185 75.9206 41.5125C75.9206 41.5125 73.6466 42.1781 72.4399 42.0434L71.6436 39.7728Z" fill="#422E1D"/>
<path d="M22.7124 30.0575C22.7124 30.0575 20.7709 27.4113 13.8136 24.083C11.5418 22.7093 9.37668 21.1682 7.33649 19.4724C7.33649 19.4724 3.50277 16.5444 2.34937 20.8691C2.34937 20.8691 0.567967 27.0601 5.05022 34.6477C5.05022 34.6477 8.66228 41.9045 17.1589 42.3701L22.7124 30.0575Z" fill="#E1C484"/>
<path d="M20.7668 29.1591C21.052 29.1536 21.3281 29.0577 21.5549 28.8855C21.1896 28.5629 20.734 28.1872 20.1429 27.7584C19.9749 28.0348 19.8241 28.3212 19.6914 28.616C19.6134 28.9427 20.3358 29.1183 20.7668 29.1591Z" fill="#7A5532"/>
<path d="M21.9898 29.2857C21.4343 29.4274 20.8992 29.6387 20.3972 29.9146C19.8677 30.1678 18.1274 31.2418 18.0083 31.7482C17.8882 32.3128 17.8032 32.8843 17.7538 33.4593C17.6718 34.2026 18.0658 34.1045 18.1643 34.7253C18.2628 35.346 17.8113 36.0117 17.7538 36.5752C17.6964 37.1388 18.4763 36.6528 18.9852 36.759C19.4942 36.8652 19.4942 36.4772 19.8883 35.8932C19.9597 35.791 20.0556 35.7082 20.1674 35.6523L22.6917 30.0575C22.4789 29.782 22.2441 29.5239 21.9898 29.2857Z" fill="#7A5532"/>
<path d="M13.5552 27.9421C13.6578 28.2566 14.2447 28.1381 14.7414 28.5139C15.1355 28.8188 15.4754 29.1874 15.747 29.6042C15.9933 29.9554 16.412 29.8778 16.8019 29.8656C17.1919 29.8533 17.2986 30.1106 17.549 30.3066C17.7993 30.5026 18.8255 30.4618 19.0102 30.2413C19.1949 30.0208 18.9815 29.5675 18.9076 28.8773C18.8337 28.1872 19.2319 27.7624 19.4371 27.4112C19.4581 27.3732 19.472 27.3317 19.4781 27.2887C18.1388 26.3872 16.7446 25.5688 15.3037 24.8385C15.1329 24.8767 14.9755 24.9599 14.8481 25.0794C14.6634 25.3489 14.4828 25.7777 14.0518 26.3617C13.685 26.8037 13.5068 27.371 13.5552 27.9421Z" fill="#7A5532"/>
<path d="M16.9333 31.0132C16.5229 30.7355 15.4844 31.0458 15.2381 31.5767C14.9918 32.1076 14.2078 32.5241 13.7892 32.6916C13.3705 32.859 12.9929 33.7207 12.8 34.1617C12.607 34.6028 11.7697 35.2643 11.6096 35.9014C11.4495 36.5385 12.4059 36.4323 12.9436 36.4976C13.681 36.6125 14.3916 36.8587 15.0411 37.2246C15.3695 37.4982 16.1781 38.2087 16.5105 38.0658C16.7111 37.9408 16.8552 37.7434 16.9126 37.515C16.97 37.2865 16.9362 37.0449 16.8184 36.8407C16.5803 36.2894 16.687 36.224 16.9333 35.8361C17.2843 35.2306 17.4645 34.5421 17.4546 33.8432C17.4054 33.1449 17.077 33.0264 17.0441 32.6507C17.0113 32.275 17.5983 32.0178 17.5983 31.589C17.5983 31.1602 16.9333 31.0132 16.9333 31.0132Z" fill="#7A5532"/>
<path d="M12.2906 27.1785C12.0156 26.8518 11.6503 27.0478 11.285 27.1785C10.9216 27.347 10.5243 27.4308 10.1234 27.4235C9.75808 27.3704 9.58979 27.6195 9.35582 27.9707C9.12186 28.3219 8.16548 28.9672 7.94383 29.249C7.72218 29.5307 8.1778 30.1229 8.35429 30.5639C8.53079 31.005 8.26399 31.0458 8.05466 31.789C7.84532 32.5323 8.36661 32.5405 8.64162 32.712C9.07194 32.9521 9.52581 33.1477 9.99614 33.296C10.4347 33.5157 10.8188 33.8296 11.1208 34.2148C11.1948 34.2918 11.2836 34.353 11.3821 34.3949C11.4805 34.4367 11.5864 34.4583 11.6934 34.4583C11.8004 34.4583 11.9063 34.4367 12.0048 34.3949C12.1032 34.353 12.192 34.2918 12.266 34.2148C12.5821 33.9167 12.7873 33.0223 12.9474 32.5813C13.1074 32.1403 14.3799 31.4787 14.8396 31.1928C15.2993 30.907 15.2501 30.127 15.2501 30.127C15.1721 29.5961 14.5194 29.204 14.0638 28.9018C13.4195 28.3843 12.8258 27.8073 12.2906 27.1785Z" fill="#7A5532"/>
<path d="M11.938 38.5599C12.3515 38.3427 12.7117 38.0373 12.9929 37.6656C13.1365 37.3797 12.722 37.2572 12.4469 37.0162C12.1719 36.7753 11.782 36.9264 11.1827 36.7304C10.8117 36.6024 10.494 36.3553 10.2797 36.028C10.2428 35.4971 11.0514 35.6196 11.1006 35.2112C11.1499 34.8028 9.47109 34.2515 9.14683 34.2515C8.82256 34.2515 8.62144 34.2515 8.15761 34.7048C7.61444 35.1051 6.95773 35.3239 6.2818 35.3296C5.99037 35.2929 5.82619 35.4562 5.67432 35.6931C6.91716 37.5271 8.53033 39.0834 10.4111 40.2628C10.5164 40.2636 10.6214 40.2498 10.723 40.222C11.1335 40.0791 11.6096 39.5849 11.5645 39.2337C11.5341 39.0954 11.5552 38.9509 11.6239 38.8269C11.6926 38.703 11.8042 38.6081 11.938 38.5599Z" fill="#7A5532"/>
<path d="M6.90154 29.7594C6.64295 29.5389 5.93696 29.592 5.5306 29.6941C5.12424 29.7962 3.7574 30.1024 3.30179 29.9268L2.8667 29.739C3.39748 31.4591 4.13043 33.1108 5.05036 34.6599C5.05036 34.6599 5.05036 34.6885 5.0873 34.7334C5.45236 34.8042 5.82363 34.8384 6.19555 34.8355C6.50604 34.7772 6.79193 34.6279 7.01647 34.4067C7.29148 34.1985 8.00569 33.9657 8.03442 33.7574C8.06315 33.5491 7.78404 33.2265 7.41873 32.7691C7.17987 32.5073 7.01799 32.1852 6.9508 31.838C7.27917 30.6946 7.16424 29.9677 6.90154 29.7594Z" fill="#7A5532"/>
<path d="M7.48829 21.3999C7.16403 21.453 6.97932 21.9594 6.58938 22.2167C6.19944 22.474 5.75204 22.817 5.71509 23.2254C5.67815 23.6338 6.02705 23.744 6.41698 23.8869C6.9541 24.0241 7.5155 24.038 8.05883 23.9278C8.4693 23.8216 9.8074 24.5485 10.0414 24.912C10.2753 25.2754 10.0947 25.8104 10.107 26.2882C10.1194 26.766 11.1907 26.6966 11.6996 26.6966C12.2086 26.6966 13.3661 26.5291 13.5344 26.2024C13.7027 25.8757 13.9941 24.7241 13.8874 24.3974C13.8169 24.2242 13.704 24.0712 13.559 23.9523C12.9844 23.6092 11.5067 22.6863 9.45441 21.1345C9.05302 21.1747 8.65423 21.2374 8.25996 21.3223C8.00542 21.37 7.74726 21.3959 7.48829 21.3999Z" fill="#7A5532"/>
<path d="M5.56758 18.6148C5.67772 18.9043 5.74411 19.2085 5.7646 19.5173C5.87132 20.1422 5.19406 20.6077 5.15302 20.9099C5.11197 21.2121 5.8467 21.3387 6.32694 21.351C6.5567 21.3514 6.78419 21.3057 6.99578 21.2166C7.20737 21.1274 7.3987 20.9967 7.55832 20.8323C7.84565 20.5669 8.48187 20.6567 8.89233 20.6894C8.40251 20.3191 7.88396 19.9135 7.33667 19.4724C6.80272 19.0845 6.2037 18.7941 5.56758 18.6148Z" fill="#7A5532"/>
<path d="M2.0459 25.3408C2.1334 26.5715 2.33818 27.7912 2.65749 28.9835C2.74464 29.0011 2.82988 29.0271 2.91197 29.0611C3.49105 29.2299 4.09907 29.2772 4.69748 29.1999C5.34836 29.0411 5.97505 28.7966 6.56098 28.473C6.90167 28.2729 6.83599 28.3954 7.23004 28.473C7.65503 28.4949 8.07139 28.3481 8.38754 28.0646C8.48195 27.8931 8.33829 27.6563 8.51889 27.3867C8.69949 27.1172 9.4178 26.6108 9.4178 26.5046C9.4178 26.3985 9.33981 25.9207 9.29056 25.5041C9.2413 25.0876 9.07712 24.8344 9.01555 24.8834C8.60509 25.2223 7.41064 24.9365 7.05764 24.622C6.70465 24.3076 5.58408 24.1034 4.8001 24.0421C4.01612 23.9809 2.41121 24.5567 2.0459 25.3408Z" fill="#7A5532"/>
<path d="M2.34948 20.8691C2.1138 21.8495 1.99668 22.8544 2.00058 23.8625H2.04573C2.39463 23.9319 3.08831 23.5562 3.38795 23.4255C3.68758 23.2948 4.27454 23.5562 4.70553 23.3642C5.13651 23.1723 5.3048 22.376 5.11599 22.1391C4.92718 21.9023 4.5044 21.5061 4.5044 21.5061C4.37716 21.0242 4.72195 20.4035 4.81635 19.6889C4.80953 19.4718 4.75577 19.2588 4.65873 19.0643C4.56169 18.8698 4.42365 18.6984 4.25402 18.5617C3.47825 18.7333 2.75173 19.3622 2.34948 20.8691Z" fill="#7A5532"/>
<path d="M19.3999 37.4014L19.4291 37.3348L19.3999 37.4014Z" fill="#7A5532"/>
<path d="M17.4092 41.8188L18.7103 38.9356C18.6115 38.6402 18.4237 38.3822 18.1726 38.1965C17.795 38.029 17.2696 38.5191 17.2203 38.6048C16.9453 39.0132 15.8125 38.7845 15.4472 38.4211C15.0818 38.0576 13.8546 37.7595 13.4236 38.0127C12.9926 38.2659 13.2307 38.2169 12.9556 38.6457C12.7315 38.9538 12.6292 39.3332 12.6683 39.7115C12.6683 40.1648 13.6329 40.9367 13.8669 41.0878C14.1008 41.2389 14.0516 41.2429 14.0639 41.6186C14.0639 41.7048 14.0708 41.7908 14.0844 41.8759C14.8172 42.0796 15.5653 42.2243 16.3214 42.3088C16.713 42.2187 17.0827 42.0521 17.4092 41.8188Z" fill="#7A5532"/>
<path d="M12.6724 40.4425C12.2824 39.7932 11.8761 39.9647 11.8514 40.0342C11.7654 40.194 11.6417 40.3307 11.4908 40.4324C11.3399 40.5342 11.1665 40.5979 10.9854 40.6181C11.7848 41.0553 12.6246 41.415 13.4933 41.6922C13.1906 41.2952 12.9163 40.8776 12.6724 40.4425Z" fill="#7A5532"/>
<path d="M20.1022 39.7728C20.1022 39.7728 12.4758 32.5854 8.66257 25.0712C8.66257 25.0712 6.99199 20.9875 5.0505 21.012C5.0505 21.012 3.37992 20.477 3.51126 24.1401C3.51126 24.1401 3.51126 37.5185 15.8251 41.5125C15.8251 41.5125 18.0991 42.1781 19.3059 42.0434L20.1022 39.7728Z" fill="#422E1D"/>
<path d="M74.8368 52.0159C75.5018 71.7568 61.5994 68.9962 43.9126 68.9798C26.2258 68.9635 12.307 70.058 12.9883 52.0159C13.5343 37.1469 15.3854 17.3039 43.9126 17.6633C72.4397 17.2958 73.9256 37.1674 74.8368 52.0159Z" fill="#CAAC7F"/>
<path d="M27.8599 21.6123C28.5413 21.7838 30.885 21.8451 31.2914 21.4898C31.6977 21.1345 31.197 19.8563 30.9794 19.403L30.9302 19.2968C29.4829 19.7425 28.0767 20.3108 26.7271 20.9957C27.0678 21.2622 27.4506 21.4705 27.8599 21.6123Z" fill="#7A5532"/>
<path d="M33.6514 20.2524C33.9962 20.3464 34.2261 20.0237 34.5996 19.9911C34.9731 19.9584 35.0101 20.3014 35.3631 20.6077C35.7161 20.914 36.106 20.6077 36.5452 20.6567C36.9844 20.7057 38.0475 21.6287 38.3266 21.7512C38.4772 21.8229 38.642 21.8602 38.8089 21.8602C38.9758 21.8602 39.1406 21.8229 39.2912 21.7512C39.6483 21.5756 39.599 21.2284 39.517 20.8405C39.4207 20.393 39.4123 19.9312 39.4923 19.4806C39.5367 18.9124 39.4769 18.3409 39.3158 17.794C37.0616 17.9439 34.8245 18.2869 32.6294 18.819C33.0111 19.4479 33.4339 20.1953 33.6514 20.2524Z" fill="#7A5532"/>
<path d="M41.4787 23.2254C41.4335 23.7971 42.2709 24.8303 42.7839 24.818C43.2204 24.7945 43.6582 24.8192 44.0892 24.8915C44.8034 24.9855 44.6639 24.818 45.8132 24.5077C46.9624 24.1973 46.4781 24.181 47.258 24.0585C48.0379 23.9359 48.5591 24.0585 48.8259 23.9196C49.0927 23.7808 48.9655 23.6256 49.183 23.4581C49.4006 23.2907 49.3513 22.6414 49.183 22.3433C48.9956 22.0665 48.9181 21.7303 48.9655 21.3999C49.0558 21.1998 48.9039 20.8609 48.7315 20.428C48.5591 19.9951 48.7315 19.256 48.7315 18.7455C48.7153 18.4289 48.67 18.1145 48.5961 17.8062C47.1184 17.696 45.5628 17.647 43.9127 17.6674C42.6813 17.6674 41.4951 17.6674 40.354 17.7327C40.5305 18.431 41.0436 19.305 41.216 19.8113C41.433 20.9358 41.5211 22.0811 41.4787 23.2254Z" fill="#7A5532"/>
<path d="M34.7387 29.547C35.1973 29.325 35.6922 29.1867 36.2 29.1387C36.5407 29.1387 37.4314 29.6001 38.5765 29.547C39.7217 29.494 40.2512 28.4648 40.4688 28.032C40.6863 27.5991 41.4785 27.4317 41.7905 27.3377C42.1024 27.2438 41.7289 26.7823 41.4169 26.2719C41.105 25.7614 40.6863 23.8216 40.1117 23.352C39.537 22.8823 38.5314 22.8497 37.7844 22.7435C37.0373 22.6373 36.3067 22.0452 35.3626 21.6123C34.7334 21.3663 34.0339 21.3663 33.4047 21.6123C32.8219 21.7716 32.2554 23.0049 32.629 23.6052C33.0025 24.2055 32.3498 25.8022 32.1159 26.0799C31.8819 26.3576 32.1159 27.7788 32.5263 28.473C32.9368 29.1673 34.1805 29.7594 34.7387 29.547Z" fill="#7A5532"/>
<path d="M25.1751 30.7681C25.2777 31.5848 26.3244 32.6099 27.0591 32.8876C27.7938 33.1653 28.6312 32.3648 28.9103 31.74C29.1894 31.1152 29.7312 30.3148 30.3798 30.0698C31.0283 29.8247 31.8451 29.5144 31.7097 28.9263C31.5742 28.3382 31.3238 27.0151 31.254 26.423C31.1843 25.8308 31.8821 23.9727 31.6645 23.5031C31.447 23.0334 30.6507 22.6863 29.6368 22.8783C28.623 23.0702 27.8554 22.6659 26.3901 22.5965C26.1411 22.5951 25.8983 22.5187 25.6939 22.3772C25.4894 22.2358 25.3329 22.036 25.2449 21.8042C24.3976 22.3188 23.5858 22.8891 22.8149 23.5112C22.9815 24.2999 23.268 25.0587 23.6646 25.7614C24.231 26.5945 25.0684 29.9677 25.1751 30.7681Z" fill="#7A5532"/>
<path d="M40.9655 30.421C40.9655 30.8702 41.5606 31.2377 42.0491 31.7074C43.016 32.4193 44.0579 33.0246 45.1563 33.5124C45.7515 33.7207 46.7653 33.4797 47.184 33.4797C47.6026 33.4797 48.3374 33.8268 49.9094 33.9984C51.4815 34.1699 52.8443 33.4103 53.0536 32.9447C53.255 32.261 53.5302 31.6011 53.8745 30.9764C54.4327 30.0698 54.051 29.1346 53.8745 28.6445C53.698 28.1545 51.6375 25.4143 51.4117 24.912C51.186 24.4097 50.8535 24.6506 50.3281 24.912C49.5456 25.2795 48.7174 25.5418 47.8653 25.692C46.7817 25.9003 44.9634 25.6226 43.9044 25.692C42.8454 25.7614 43.4282 26.423 43.4282 27.0151C43.4064 27.4443 43.312 27.8668 43.1491 28.2648C40.8259 28.5343 40.9655 29.9677 40.9655 30.421Z" fill="#7A5532"/>
<path d="M31.0081 30.9845C30.101 31.156 29.5058 33.4348 29.9614 34.031C30.417 34.6272 30.7823 35.1908 31.4309 35.9871C32.0794 36.7835 33.0727 39.1888 34.3041 39.6625C35.5355 40.1362 36.5042 39.4175 37.1773 39.2786C37.8505 39.1398 39.0285 40.1485 39.5949 40.2873C40.1614 40.4262 40.498 39.1398 40.5677 38.3761C40.6375 37.6125 39.9028 36.7426 39.5949 36.2893C39.2871 35.836 39.3774 34.2025 39.1845 33.3368C38.9916 32.471 37.2635 30.6946 36.7956 30.6946C36.3277 30.6946 35.5642 31.6175 34.8869 31.7033C33.1384 31.9156 31.9152 30.8008 31.0081 30.9845Z" fill="#7A5532"/>
<path d="M45.1933 43.2807C46.2077 43.4948 47.2345 43.6462 48.2677 43.734C49.5935 43.877 49.4211 43.1746 50.5375 43.0357C51.654 42.8969 52.8443 43.6605 53.8582 43.73C54.872 43.7994 53.9977 42.4477 54.1824 41.5084C54.3671 40.5691 53.6817 40.6059 52.635 39.9076C51.5883 39.2092 52.0768 37.4573 51.342 36.5385C50.6073 35.6196 49.5935 35.7217 48.8793 35.6686C48.165 35.6155 48.0583 35.2602 47.2374 35.0071C46.4165 34.7539 46.5027 35.3215 45.5956 35.7013C44.6884 36.0811 44.7746 35.5298 43.8716 34.7661C42.9686 34.0024 41.963 33.0632 41.298 33.202C40.6331 33.3409 40.8055 34.9376 40.7726 35.0438C40.3909 36.2689 41.4376 38.1025 41.8891 39.0418C42.3406 39.9811 44.278 43.0725 45.1933 43.2807Z" fill="#7A5532"/>
<path d="M26.3985 33.8432C25.6268 33.7737 23.4267 32.8018 22.7987 32.9284C22.1707 33.055 22.5525 33.7043 22.3103 34.4721C21.9882 35.4019 21.4057 36.2209 20.6315 36.8325C19.4781 37.5961 20.1061 39.2337 20.4591 39.6911C20.9051 40.357 21.2237 41.0991 21.3991 41.88C21.6084 42.7499 21.9942 42.7499 22.3103 43.1664C22.6263 43.5829 22.3103 43.1664 22.6428 43.5748C22.9752 43.9832 25.6268 43.926 26.9567 43.4033C28.2866 42.8805 27.7776 42.8805 28.5288 43.1256C29.2799 43.3706 29.7602 43.681 30.6222 43.5339C31.4841 43.3869 31.1475 42.562 31.7263 41.831C32.305 41.1 32.1983 40.8223 32.0218 39.9525C31.8453 39.0826 31.1147 39.295 30.4498 39.0173C29.7848 38.7396 30.38 37.7922 30.1009 37.0693C29.7208 36.1898 29.2519 35.3511 28.7012 34.566C28.3195 34.0678 27.1661 33.9289 26.3985 33.8432Z" fill="#7A5532"/>
<path d="M42.6034 44.1016C42.9564 43.6605 42.8866 41.831 42.4885 41.5043C42.0903 41.1776 41.2571 41.5533 40.0257 41.684C38.7943 41.8147 38.0226 41.1123 37.3946 40.7406C36.7666 40.369 34.9934 41.0633 34.2259 41.345C33.4583 41.6268 33.1956 42.7335 33.1956 42.7335C33.0602 43.1174 32.937 44.367 32.543 45.1184C32.1489 45.8698 32.7072 48.5733 33.1956 48.8959C33.6841 49.2185 34.4516 49.5452 35.5024 50.313C36.5532 51.0807 37.8051 51.3788 38.3756 51.191C38.9462 51.0031 38.7245 49.9659 39.3977 49.0838C39.9449 48.3924 40.6038 47.7962 41.3474 47.3196C41.9754 46.8785 41.8358 46.1353 41.8153 45.4411C41.7948 44.7468 42.2545 44.5426 42.6034 44.1016Z" fill="#7A5532"/>
<path d="M44.8898 48.2016C45.8421 48.6427 46.5891 50.0352 46.8928 50.7744C47.1966 51.5136 48.7317 52.1874 49.5239 52.5345C50.3161 52.8816 51.5023 54.3681 52.6434 54.6458C53.7845 54.9235 53.5998 53.2328 53.7147 52.2813C53.8297 51.3298 54.5357 49.1287 55.02 48.5488C55.5043 47.9689 56.7891 46.5355 56.5346 45.9392C56.2801 45.343 55.3484 44.9796 54.3551 45.4002C53.3617 45.8208 53.2509 45.6289 52.5531 45.1878C51.4609 44.5683 50.2229 44.2484 48.9657 44.2608C47.7056 44.3547 47.4716 44.9346 46.8231 45.0041C46.1745 45.0735 45.682 43.9831 44.9103 44.0321C44.1386 44.0811 43.8759 45.1878 43.8759 45.1878C43.3752 45.8861 43.9334 47.7606 44.8898 48.2016Z" fill="#7A5532"/>
<path d="M45.259 60.9716C46.5889 61.3432 46.6094 60.4162 46.9008 59.9302C47.3402 59.1687 47.6992 58.364 47.9721 57.529C48.0624 57.0675 48.9942 56.0466 49.614 55.5361C50.2338 55.0256 50.1476 54.0537 49.614 53.4942C49.0804 52.9348 47.4673 52.5672 46.6792 52.2895C45.8911 52.0118 44.6966 49.7413 44.1836 48.9286C43.6705 48.1159 42.2749 48.2098 42.2749 48.2098C41.3185 48.3487 40.6331 49.5085 40.1077 50.3211C39.5823 51.1338 37.571 52.9593 36.9882 53.4493C36.4053 53.9394 36.7542 54.5846 36.9882 55.2339C37.2221 55.8832 37.5218 56.6469 37.4315 57.2758C37.3412 57.9047 37.7803 58.2232 38.4084 58.6398C39.0364 59.0563 40.2021 60.7511 40.7028 61.1431C41.2036 61.5352 42.2749 60.7347 43.0671 60.4244C43.8593 60.114 43.9332 60.6 45.259 60.9716Z" fill="#7A5532"/>
<path d="M60.4013 56.2222C60.1427 55.5034 59.2602 54.6458 58.6322 54.7316C58.3806 54.7908 58.1158 54.7556 57.8887 54.6328C57.6615 54.51 57.4878 54.3082 57.4008 54.0659C57.1709 53.58 56.309 52.4324 55.7959 52.1874C55.2828 51.9424 55.0283 52.6734 54.6302 53.1634C54.232 53.6535 54.4701 54.3436 54.1171 55.4095C53.8876 56.0665 53.446 56.6294 52.8611 57.0103C51.9047 57.0797 52.114 55.6423 51.3957 55.5238C50.6774 55.4054 49.6923 58.4437 49.6718 59.0236C49.6513 59.6035 49.6718 59.9506 50.4927 60.7633C51.3136 61.576 51.6789 63.5198 51.6092 64.0997C51.5394 64.6796 51.9129 64.9818 52.4301 65.2799C52.9473 65.578 54.1089 64.5408 54.7615 64.0752C55.4141 63.6097 56.2966 62.6377 56.9247 62.3151C57.5527 61.9925 57.8113 62.6622 58.2546 63.0094C58.6979 63.3565 58.977 62.8501 59.3505 62.454C59.724 62.0578 59.5803 61.1553 59.8841 60.3468C60.1878 59.5382 60.6558 56.9409 60.4013 56.2222Z" fill="#7A5532"/>
<path d="M43.9127 68.9635C46.1702 68.9635 48.3662 69.0125 50.4801 69.0533C50.5222 68.8672 50.5374 68.6761 50.5252 68.4857C50.4554 67.9752 50.2666 67.5587 50.3857 66.9788C50.5889 66.0818 50.6975 65.1662 50.7099 64.2468C50.6401 63.5974 50.2995 63.2503 49.9424 62.7644C49.5853 62.2784 49.1502 61.0002 48.7766 60.9552C48.4031 60.9103 47.8203 61.3963 47.0076 62.0456C46.532 62.4631 45.952 62.7453 45.3288 62.8624C43.3052 62.307 41.9999 62.5152 41.6018 62.9767C41.2036 63.4382 41.3021 64.6919 41.4868 65.427C41.6469 66.0477 42.1025 67.9385 41.9999 68.9676L43.9127 68.9635Z" fill="#7A5532"/>
<path d="M32.8919 57.4473C33.5445 57.0389 34.5009 57.3575 35.3546 57.333C36.2084 57.3085 36.1222 55.4095 36.0729 54.507C36.0237 53.6045 35.7733 51.5381 35.1904 51.24C34.6076 50.9419 32.5348 50.4233 31.9519 50.607C31.369 50.7908 30.8354 51.534 30.2526 52.3712C29.6926 53.1125 29.0939 53.8241 28.4589 54.5029C27.1782 55.1277 26.0577 56.8674 25.9961 57.3289C26.0385 58.4424 26.1758 59.5504 26.4066 60.6408C26.5036 61.0764 26.5667 61.5187 26.5954 61.964C26.6857 62.5438 27.5969 62.8665 28.0853 63.5648C28.5738 64.2631 29.1115 65.0472 29.8298 65.1166C30.5481 65.186 30.7616 64.5571 31.0202 63.8629C31.2627 62.914 31.2866 61.9228 31.0899 60.9634C30.934 60.2692 32.2392 57.8679 32.8919 57.4473Z" fill="#7A5532"/>
<path d="M21.2471 47.6912C21.5508 48.4345 22.2938 49.9169 22.2856 50.3579C22.2774 50.799 22.3636 51.8403 22.8315 52.3998C23.2994 52.9593 23.5498 53.8536 23.8782 54.6704C24.2065 55.4871 25.52 55.4504 26.0659 55.2666C26.6118 55.0828 27.2973 54.0864 27.5354 52.9715C27.7735 51.8566 28.2578 51.8362 28.7668 51.24C29.2757 50.6438 30.4086 49.7984 31.0613 49.0103C31.7139 48.2221 31.1434 45.9964 30.3717 45.4166C29.6 44.8367 28.7298 44.2118 27.95 44.4895C27.1701 44.7672 26.6242 45.4656 26.0618 45.9352C25.4995 46.4048 25.1547 45.5268 24.2927 44.9551C23.4308 44.3834 23.1763 44.1873 22.6878 44.3507C22.1994 44.514 22.2774 45.2532 22.2774 45.2532C22.2923 45.4786 22.2218 45.7014 22.0797 45.8775C21.9376 46.0537 21.7342 46.1705 21.5098 46.2047C20.8818 46.3967 20.9434 46.952 21.2471 47.6912Z" fill="#7A5532"/>
<path d="M16.3091 58.6316C16.6334 59.0032 16.7976 58.4928 17.7745 57.9823C18.7514 57.4718 20.4302 56.6836 21.1526 56.4059C21.875 56.1283 22.9709 56.9613 23.5291 57.2227C24.0874 57.4841 23.9027 57.0349 23.8083 56.5489C23.5758 55.7424 23.1053 55.024 22.4578 54.4866C21.7354 53.9312 21.7354 52.1466 21.3168 51.4033C20.8981 50.6601 20.9884 48.8796 20.6641 48.4835C20.3399 48.0873 19.8719 48.6019 19.0223 49.3574C18.1726 50.1129 17.8566 50.1741 16.7155 50.5825C15.5744 50.9909 15.3856 51.1992 15.0736 51.7341C14.7617 52.2691 15.3158 52.5509 15.3774 52.6121C15.7263 52.9715 16.5636 54.4457 16.5636 55.1155C16.5636 55.7852 15.8207 57.2472 15.8207 57.2472C15.8896 57.7363 16.0556 58.2069 16.3091 58.6316Z" fill="#7A5532"/>
<path d="M14.9751 61.5025C14.9087 61.6222 14.8577 61.7498 14.8232 61.8823C16.0777 64.1086 18.0524 65.8473 20.4261 66.8154C20.6641 66.5092 20.8611 66.1049 21.1279 65.7904C21.6656 65.1656 22.1295 65.2105 23.25 65.0268C24.3706 64.843 25.2079 66.0477 25.7415 66.1171C26.2751 66.1865 26.5091 64.892 26.5337 64.0303C26.5308 63.6272 26.4469 63.2288 26.2869 62.8585C26.1268 62.4882 25.894 62.1535 25.602 61.8741C25.0438 61.2738 25.368 59.8322 25.368 59.1625C25.368 58.4927 24.9576 57.8883 24.5471 57.9986C24.1366 58.1089 23.6646 58.215 22.5687 58.5377C21.4727 58.8603 20.8242 57.8189 20.032 58.0272C19.2398 58.2355 18.973 59.0073 18.8663 59.0481C17.5405 59.5708 15.4471 60.7143 14.9751 61.5025Z" fill="#7A5532"/>
<path d="M40.6252 66.9216C40.335 65.7658 39.8949 64.6525 39.3158 63.6097C38.9587 63.0053 39.1804 63.1237 39.3158 62.4254C39.4513 61.7271 38.8725 60.5265 38.5688 60.3631C38.2651 60.1998 37.8218 60.457 37.3374 60.1344C36.8531 59.8118 35.9377 58.5336 35.753 58.5336C35.5683 58.5336 34.7063 58.6724 33.9593 58.7664C33.2123 58.8603 32.7525 59.1461 32.8428 59.2523C33.4462 59.9711 32.9331 62.111 32.3749 62.7276C31.8167 63.3442 31.4678 65.3494 31.3488 66.7379C31.338 67.4688 31.4676 68.1951 31.7305 68.8777C34.5011 69.0043 37.477 69.0003 40.6129 68.988C40.7011 68.3022 40.7052 67.6084 40.6252 66.9216Z" fill="#7A5532"/>
<path d="M30.1662 66.9216C29.8173 66.1539 28.3971 65.8558 27.9785 66.2233C27.5598 66.5908 26.8128 67.2851 26.8128 67.2851C25.9508 67.5138 24.8343 66.8971 23.5291 66.7338C22.9158 66.7317 22.3262 66.9692 21.8872 67.3953C24.2925 68.2121 27.1001 68.6205 30.2114 68.8165C30.2237 68.2407 30.433 67.4893 30.1662 66.9216Z" fill="#7A5532"/>
<path d="M49.8726 19.0477C49.5935 19.8155 52.0604 23.9156 51.9701 24.3811C51.8798 24.8466 52.7376 26.2555 53.7145 26.9743C54.6914 27.693 55.6273 29.2244 56.559 30.1719C57.4908 31.1193 58.7017 29.9881 59.6088 29.3224C60.5159 28.6568 61.4723 26.4434 61.3081 25.839C61.0259 25.1216 60.625 24.4562 60.1219 23.8706C59.6539 23.2662 59.7483 23.1274 59.4241 22.3637C59.1054 21.6657 58.5644 21.0916 57.8848 20.7302C57.2686 20.4505 56.6037 20.2924 55.9269 20.2647C55.2045 20.1707 55.2538 19.9421 54.7407 19.5459C54.2276 19.1498 54.1127 18.7578 53.5093 18.6189C52.9059 18.4801 53.0455 18.6679 52.5776 18.6434C52.1083 18.5267 51.6617 18.3335 51.2559 18.0717L50.1682 17.941C49.9895 18.284 49.8886 18.6618 49.8726 19.0477Z" fill="#7A5532"/>
<path d="M59.2147 32.0953C58.4676 31.9565 56.6739 31.1234 55.7873 30.96C54.9007 30.7967 54.6462 31.495 54.5067 32.3036C54.4069 32.83 54.227 33.3381 53.9731 33.8105C52.4133 34.4149 52.3312 35.9422 52.5529 37.1469C52.7745 38.3516 54.6955 40.3445 55.2537 40.7856C55.867 40.9684 56.5018 41.0701 57.1418 41.0878C57.8396 41.0428 58.2337 40.7161 59.4938 40.6345C60.7539 40.5528 62.5189 40.6018 63.1018 40.2996C63.6846 39.9974 63.5697 38.2577 63.4753 37.7513C63.3809 37.2449 62.5435 36.175 61.7513 35.6645C60.9591 35.1541 60.9304 33.1857 60.5856 32.6997C60.2408 32.2137 59.9576 32.2342 59.2147 32.0953Z" fill="#7A5532"/>
<path d="M57.5567 52.2568C58.1101 52.6539 58.7906 52.8355 59.4694 52.7673C60.2904 52.7673 61.6818 51.0521 61.9322 50.6356C62.1826 50.2191 62.2113 50.313 62.8886 50.2885C63.5659 50.264 63.5412 50.2436 63.8203 49.8801C64.0995 49.5166 64.3786 47.9321 64.1241 46.2864C63.8696 44.6406 61.7024 42.1373 60.471 41.7453C59.2396 41.3532 57.0641 42.3251 56.7768 42.9949C56.4895 43.6646 57.3556 44.5998 57.4951 44.6896C58.2668 45.1756 57.8235 47.1889 57.1709 47.8382C56.5182 48.4875 55.9846 50.6683 56.4279 51.4319C56.8712 52.1956 56.7891 51.7709 57.5567 52.2568Z" fill="#7A5532"/>
<path d="M61.8663 59.1175C62.3794 59.3258 63.0074 58.9542 63.6395 58.166C64.2716 57.3779 65.2239 57.1696 66.3403 56.7776C67.4568 56.3855 69.2505 57.5943 69.9729 57.725C70.6953 57.8557 70.4408 56.6836 70.9046 55.9445C71.1214 55.5042 71.2101 55.0124 71.1608 54.5246C71.1114 54.0368 70.9261 53.5724 70.6255 53.1838C70.0427 52.5835 68.5281 51.632 67.9945 51.5503C67.4609 51.4687 67.1735 51.828 66.3526 52.1466C65.5317 52.4651 65.0474 51.1583 64.3455 50.8316C63.6436 50.5049 63.6723 50.8316 63.0648 51.2971C62.3422 51.8471 61.5794 52.3426 60.7827 52.7796C59.621 53.4738 59.9248 54.1925 60.0151 54.2415C61.345 54.9358 61.1562 56.5815 60.9715 57.1818C60.7868 57.7822 61.3573 58.9093 61.8663 59.1175Z" fill="#7A5532"/>
<path d="M66.3403 67.5546C67.0529 66.6486 67.8234 65.7893 68.6471 64.9819C69.2997 64.308 69.0576 63.4749 69.0863 61.8986C69.115 60.3223 67.8057 58.1456 66.644 58.0068C65.4824 57.8679 64.5712 58.8235 63.6395 59.9997C62.7077 61.1758 62.2398 61.8537 61.5871 62.2702C61.3817 62.3866 61.1692 62.4903 60.9509 62.5806L61.2916 62.4581C60.6923 62.699 59.8632 63.0992 59.7237 63.4994C59.4651 64.2141 59.814 67.5546 60.0479 68.4326C60.0998 68.6147 60.1757 68.7891 60.2737 68.9513C62.2416 68.8347 64.1907 68.5032 66.0858 67.963C66.1474 67.8323 66.2377 67.6976 66.3403 67.5546Z" fill="#7A5532"/>
<path d="M60.9306 62.5806C60.0112 62.9073 60.4093 62.8011 60.9306 62.5806V62.5806Z" fill="#7A5532"/>
<path d="M58.2336 65.721C58.328 64.5857 57.2321 63.7077 56.6739 63.8465C56.1156 63.9854 55.5533 65.3371 55.5533 65.3371C55.1428 66.1049 54.1824 65.6761 53.1562 66.1539C52.6281 66.3893 52.1944 66.7938 51.9243 67.3031C51.6542 67.8123 51.5634 68.3969 51.6662 68.9635C51.6662 69.0084 51.6662 69.0615 51.6662 69.1105C54.207 69.1514 56.6164 69.1636 58.8534 69.0574C58.406 68.3346 58.1433 66.8236 58.2336 65.721Z" fill="#7A5532"/>
<path d="M66.6441 50.8194C67.4363 51.0521 68.368 50.4518 69.7184 49.9168C71.0688 49.3819 69.7636 48.1567 69.308 47.438C68.8403 46.2963 68.263 45.2023 67.584 44.171C66.7631 43.1051 66.7631 41.1817 66.6974 40.4139C66.6317 39.6462 65.7903 38.8621 65.0925 39.2337C64.3947 39.6054 63.738 41.2021 63.738 41.2021C63.1798 42.2965 64.0212 42.6641 64.719 43.3583C65.4168 44.0526 65.0433 45.4451 64.8791 46.3721C64.7149 47.2992 65.8519 50.5866 66.6441 50.8194Z" fill="#7A5532"/>
<path d="M61.928 29.5225C60.1548 30.5884 61.3697 33.2306 62.088 33.786C62.8064 34.3414 62.6709 34.1944 63.4631 35.3419C64.2553 36.4894 65.3759 37.102 66.0942 36.7549C66.8125 36.4078 67.1449 36.6855 68.6349 36.3465C70.1249 36.0076 68.9592 34.713 68.9592 34.713L69.0331 33.6226C69.1029 32.5364 68.8443 31.0744 69.0084 30.1719C69.1726 29.2694 68.4954 28.714 67.9577 28.2729C67.42 27.8319 66.5169 27.4357 65.9792 26.7864C65.4415 26.1371 64.0952 25.4674 63.5657 25.7206C63.0362 25.9738 63.0444 26.4638 63.1553 27.4153C63.2661 28.3668 62.0922 29.4164 61.928 29.5225Z" fill="#7A5532"/>
<path d="M61.7063 23.7767C62.5683 24.0544 64.4318 24.7486 65.0844 24.2872C65.2152 24.1782 65.3156 24.0375 65.3759 23.8788C63.6562 22.3979 61.7181 21.1886 59.6294 20.2932C59.7554 20.8878 60.015 21.4462 60.3888 21.9267C61.3082 23.013 60.8444 23.499 61.7063 23.7767Z" fill="#7A5532"/>
<path d="M15.2788 35.1704C15.992 35.7623 16.8167 36.2065 17.7046 36.4772C19.0099 36.7998 19.1946 36.0688 20.4055 35.5012C21.6163 34.9335 21.6656 33.6962 21.8052 32.9447C21.9447 32.1933 22.8765 31.5154 23.0365 31.2704C23.1966 31.0254 23.8287 30.96 24.0134 30.5353C24.1982 30.1106 23.9231 30.033 23.5045 29.8002C23.0858 29.5675 23.3444 29.2449 23.2951 28.5343C23.1347 27.6535 22.7846 26.8176 22.269 26.084C22.0514 25.8349 21.6902 25.1774 21.251 24.912C18.3368 27.8155 16.4774 31.3643 15.2788 35.1704Z" fill="#7A5532"/>
<path d="M15.1884 48.6672C15.8903 49.2226 16.5389 49.0388 17.5199 48.6672C18.5009 48.2956 18.5419 47.0337 19.8226 46.3027C21.1032 45.5717 20.7338 44.9101 21.0293 43.8525C21.3249 42.7948 20.7338 42.905 20.3151 41.8392C19.8965 40.7733 19.8472 39.7564 19.4449 38.8294C19.0427 37.9024 18.4188 37.543 17.2408 37.4042C16.2598 37.2858 15.5086 36.6773 14.8231 36.7385C14.2962 38.7689 13.9041 40.8316 13.6492 42.9132C13.5959 45.1756 13.6985 47.2461 14.0022 47.4053C14.6754 47.7851 14.4907 48.1118 15.1884 48.6672Z" fill="#7A5532"/>
<path d="M14.5975 58.7541C15.1886 58.2436 15.008 58.1987 15.3322 57.5494C15.6565 56.9001 15.0983 56.7612 15.283 55.9731C15.4677 55.1849 15.049 54.7193 14.9751 54.164C14.9012 53.6086 13.4769 53.3472 13.2799 53.5351C13.112 53.7402 13.0091 53.9904 12.9844 54.2538C13.0244 55.9735 13.2865 57.6808 13.7643 59.334C14.0722 59.1876 14.3537 58.9917 14.5975 58.7541Z" fill="#7A5532"/>
<path d="M74.2418 57.774C73.8313 57.9496 73.7616 57.9129 72.5302 58.3662C71.9871 58.5595 71.5012 58.885 71.117 59.3129C70.7327 59.7409 70.4622 60.2578 70.3301 60.8164C70.051 61.8578 70.3301 63.675 70.3301 63.9772C70.3449 64.2259 70.4335 64.4646 70.5848 64.6631C70.736 64.8615 70.9431 65.0109 71.1798 65.0921C72.7847 63.4994 73.9134 61.2901 74.4635 58.2518C74.3732 57.9374 74.2952 57.7454 74.2418 57.774Z" fill="#7A5532"/>
<path d="M74.5372 47.6544C74.0693 48.1731 73.3058 48.3119 72.2427 48.6591C71.8617 48.744 71.5097 48.9266 71.2217 49.1888C70.9337 49.4511 70.7196 49.7837 70.6008 50.1537C70.2848 50.8847 71.077 51.4156 71.1837 51.5463C72.4151 53.0409 71.9636 53.8373 71.508 54.7234C71.0524 55.6096 71.508 55.5075 71.6845 56.8266C71.861 58.1456 72.2058 57.0348 72.9159 56.6551C73.4951 56.3072 74.1212 56.0432 74.7752 55.871C74.8754 54.5858 74.9014 53.2959 74.8532 52.0077C74.7506 50.5866 74.6521 49.1409 74.5372 47.6544Z" fill="#7A5532"/>
<path d="M69.8579 36.1913C69.4721 36.955 69.4844 37.4164 68.1093 38.3108C66.3279 39.491 67.9698 42.1658 68.253 42.9663C68.5362 43.7667 69.2997 45.4696 69.6855 46.3027C70.0713 47.1358 71.3602 47.4502 71.9184 47.4502C72.4766 47.4502 74.0528 46.0944 74.2252 45.539C74.2608 45.3668 74.2828 45.192 74.2909 45.0163C73.9924 41.8924 73.4155 38.8011 72.5669 35.7788C71.9364 35.4116 71.2388 35.1728 70.5146 35.0764C69.6075 35.0438 70.2437 35.4236 69.8579 36.1913Z" fill="#7A5532"/>
<path d="M69.7515 30.3523V30.3936C69.7721 30.3316 69.8423 30.2119 69.7515 30.3523Z" fill="#7A5532"/>
<path d="M69.9278 30.0698C69.8129 30.2617 69.7554 30.3597 69.7349 30.4006C69.6077 30.7722 69.9114 32.2056 70.3137 33.1857C70.642 34.0025 71.3562 34.076 72.0704 34.2271C71.5417 32.6747 70.8769 31.1716 70.0838 29.7349C70.0421 29.851 69.9899 29.9631 69.9278 30.0698Z" fill="#7A5532"/>
<path d="M68.3888 27.1376C67.7414 26.2754 67.0278 25.4644 66.2544 24.7119C65.844 25.2509 66.3283 26.1085 66.3283 26.1085C66.8906 27.0192 67.6746 27.3092 68.3888 27.1376Z" fill="#7A5532"/>
<path d="M63.8816 47.2461C63.8816 48.8164 63.4135 50.3515 62.5366 51.6571C61.6596 52.9627 60.4131 53.9802 58.9549 54.581C57.4966 55.1817 55.892 55.3387 54.344 55.0321C52.7961 54.7254 51.3743 53.9689 50.2585 52.8582C49.1427 51.7476 48.3831 50.3326 48.0757 48.7924C47.7683 47.2521 47.9269 45.6558 48.5314 44.2052C49.136 42.7546 50.1594 41.515 51.4721 40.6432C52.7849 39.7714 54.328 39.3064 55.9063 39.3073C56.954 39.3073 57.9914 39.5126 58.9593 39.9116C59.9272 40.3107 60.8065 40.8955 61.5472 41.6327C62.2878 42.37 62.8752 43.2452 63.2757 44.2083C63.6763 45.1715 63.8822 46.2037 63.8816 47.2461Z" fill="white"/>
<path d="M61.0742 47.2461C61.0742 48.2629 60.7711 49.257 60.2033 50.1025C59.6355 50.948 58.8284 51.607 57.8841 51.9961C56.9398 52.3853 55.9008 52.4871 54.8983 52.2887C53.8959 52.0903 52.9751 51.6007 52.2524 50.8816C51.5296 50.1626 51.0375 49.2465 50.8381 48.2491C50.6387 47.2518 50.741 46.218 51.1321 45.2785C51.5233 44.339 52.1856 43.5361 53.0355 42.9711C53.8853 42.4062 54.8844 42.1046 55.9065 42.1046C57.2771 42.1046 58.5915 42.6463 59.5606 43.6105C60.5298 44.5747 61.0742 45.8825 61.0742 47.2461Z" fill="#17181C"/>
<path d="M59.6045 46.9316C59.1941 47.0745 58.8287 46.5477 58.4552 45.9474C58.0817 45.3471 57.8067 44.7509 58.094 44.4119C58.3813 44.073 59.3008 44.2118 59.7851 45.0204C60.2695 45.829 60.0027 46.7968 59.6045 46.9316Z" fill="white"/>
<path d="M52.1097 46.6539C52.3888 46.6539 52.59 46.2456 52.787 45.7923C52.984 45.339 53.1154 44.902 52.8978 44.7468C52.6803 44.5916 52.0769 44.8734 51.8429 45.486C51.609 46.0985 51.8388 46.6539 52.1097 46.6539Z" fill="white"/>
<path d="M27.2563 47.2461C27.2564 48.8157 27.724 50.3501 28.6003 51.6554C29.4765 52.9606 30.722 53.9782 32.1793 54.5794C33.6366 55.1806 35.2404 55.3386 36.7879 55.0332C38.3354 54.7279 39.7572 53.973 40.8737 52.864C41.9901 51.7549 42.751 50.3415 43.0603 48.8024C43.3696 47.2632 43.2133 45.6673 42.6113 44.2165C42.0092 42.7656 40.9884 41.5249 39.6778 40.6511C38.3672 39.7773 36.8257 39.3097 35.2481 39.3072C34.199 39.3051 33.1598 39.5089 32.1901 39.9069C31.2203 40.305 30.339 40.8895 29.5966 41.6269C28.8542 42.3644 28.2654 43.2403 27.8638 44.2045C27.4622 45.1688 27.2558 46.2023 27.2563 47.2461Z" fill="white"/>
<path d="M30.064 47.2461C30.064 48.2622 30.3666 49.2556 30.9338 50.1008C31.5009 50.9459 32.307 51.6049 33.2503 51.9946C34.1936 52.3842 35.2318 52.487 36.2338 52.2899C37.2358 52.0928 38.1566 51.6048 38.88 50.8874C39.6034 50.1699 40.0969 49.2554 40.2981 48.2591C40.4993 47.2628 40.3993 46.2296 40.0107 45.2898C39.6221 44.35 38.9623 43.5459 38.1146 42.979C37.267 42.4121 36.2695 42.1078 35.2481 42.1046C34.5681 42.1025 33.8943 42.2339 33.2655 42.4913C32.6366 42.7487 32.065 43.1271 31.5834 43.6047C31.1017 44.0824 30.7196 44.6499 30.4589 45.2747C30.1982 45.8996 30.064 46.5695 30.064 47.2461Z" fill="#17181C"/>
<path d="M31.529 46.9316C31.9395 47.0745 32.3089 46.5477 32.6824 45.9474C33.056 45.3471 33.331 44.7509 33.0436 44.4119C32.7563 44.073 31.8369 44.2118 31.3525 45.0204C30.8682 45.829 31.1432 46.7968 31.529 46.9316Z" fill="white"/>
<path d="M39.0281 46.6539C38.749 46.6539 38.5478 46.2456 38.3508 45.7923C38.1538 45.339 38.0224 44.902 38.24 44.7468C38.4575 44.5916 39.0609 44.8734 39.2949 45.486C39.5288 46.0985 39.299 46.6539 39.0281 46.6539Z" fill="white"/>
<path d="M58.3652 60.9716C58.3652 67.0972 51.5556 70.9564 45.5711 70.8584C39.5865 70.9564 32.7852 67.0972 32.7852 60.9716C32.7852 54.846 39.5865 50.995 45.5711 51.0848C51.5556 50.995 58.3693 54.846 58.3652 60.9716Z" fill="#D6C5AB"/>
<path d="M50.5993 63.7526L50.55 63.6955C50.4474 63.5934 50.2339 63.7445 50.1395 63.8139C49.5507 64.2504 48.8359 64.4862 48.1016 64.4862C47.3673 64.4862 46.6525 64.2504 46.0636 63.8139V59.7097L49.06 57.4963C49.1503 57.4269 49.1216 57.2472 49.0026 57.0879L48.941 57.0063C48.8261 56.8511 48.6537 56.7816 48.5634 56.847L45.4151 59.1625L42.2751 56.8511C42.1848 56.7857 42.0165 56.8511 41.9016 57.0103L41.8441 57.092C41.7251 57.2472 41.7086 57.4269 41.7989 57.5004L45.0826 59.9261H45.1073C45.1401 59.967 45.2181 59.9996 45.2181 60.0282V63.7322C44.6232 64.1984 43.8909 64.4573 43.1338 64.4691C42.3766 64.4809 41.6365 64.2449 41.0273 63.7976C40.9288 63.7281 40.6866 63.577 40.584 63.6791L40.5306 63.7363C40.4239 63.8425 40.5306 64.1978 40.6538 64.2835C41.365 64.808 42.2294 65.086 43.1146 65.0749C43.9998 65.0639 44.8569 64.7644 45.5547 64.2223C46.2524 64.7644 47.1096 65.0639 47.9948 65.0749C48.88 65.086 49.7444 64.808 50.4556 64.2835C50.5993 64.2141 50.706 63.8588 50.5993 63.7526Z" fill="black"/>
<path d="M53.3084 61.0369C53.3084 61.1379 53.2783 61.2366 53.2219 61.3205C53.1655 61.4045 53.0854 61.4699 52.9917 61.5085C52.8979 61.5472 52.7947 61.5573 52.6952 61.5376C52.5957 61.5179 52.5043 61.4693 52.4325 61.3979C52.3607 61.3265 52.3119 61.2355 52.2921 61.1365C52.2723 61.0375 52.2825 60.9349 52.3213 60.8416C52.3601 60.7483 52.4259 60.6686 52.5103 60.6125C52.5946 60.5564 52.6938 60.5265 52.7953 60.5265C52.9314 60.5265 53.0619 60.5802 53.1581 60.676C53.2543 60.7717 53.3084 60.9015 53.3084 61.0369Z" fill="#7A5532"/>
<path d="M54.6873 60.212C54.6865 60.3128 54.6557 60.4111 54.5988 60.4945C54.542 60.5779 54.4615 60.6427 54.3677 60.6807C54.2739 60.7187 54.1709 60.7282 54.0716 60.7081C53.9723 60.6879 53.8813 60.639 53.81 60.5675C53.7386 60.4959 53.6902 60.4049 53.6707 60.306C53.6512 60.2071 53.6616 60.1047 53.7006 60.0117C53.7395 59.9186 53.8053 59.8391 53.8896 59.7832C53.9739 59.7273 54.0729 59.6975 54.1742 59.6975C54.2419 59.6975 54.309 59.7108 54.3715 59.7367C54.434 59.7626 54.4908 59.8006 54.5385 59.8484C54.5862 59.8963 54.6239 59.953 54.6494 60.0154C54.6749 60.0778 54.6878 60.1446 54.6873 60.212Z" fill="#7A5532"/>
<path d="M54.6873 61.8823C54.6873 61.9832 54.6572 62.0819 54.6008 62.1659C54.5444 62.2498 54.4643 62.3153 54.3706 62.3539C54.2768 62.3925 54.1736 62.4026 54.0741 62.3829C53.9746 62.3632 53.8832 62.3146 53.8114 62.2432C53.7397 62.1718 53.6908 62.0809 53.671 61.9819C53.6512 61.8828 53.6614 61.7802 53.7002 61.6869C53.739 61.5937 53.8048 61.5139 53.8892 61.4578C53.9735 61.4017 54.0727 61.3718 54.1742 61.3718C54.3103 61.3718 54.4408 61.4256 54.537 61.5213C54.6332 61.6171 54.6873 61.7469 54.6873 61.8823Z" fill="#7A5532"/>
<path d="M37.8052 61.0369C37.8044 61.1389 37.834 61.2388 37.8903 61.3239C37.9467 61.4091 38.0272 61.4756 38.1216 61.5152C38.216 61.5548 38.3201 61.5656 38.4207 61.5462C38.5213 61.5268 38.6139 61.4781 38.6866 61.4063C38.7593 61.3345 38.809 61.2428 38.8293 61.1429C38.8496 61.043 38.8396 60.9393 38.8006 60.8451C38.7615 60.7508 38.6953 60.6702 38.6101 60.6135C38.525 60.5568 38.4248 60.5265 38.3224 60.5265C38.1859 60.5265 38.055 60.5801 37.9581 60.6757C37.8612 60.7713 37.8063 60.9012 37.8052 61.0369Z" fill="#7A5532"/>
<path d="M36.4136 60.212C36.4136 60.314 36.444 60.4136 36.501 60.4983C36.558 60.583 36.6391 60.649 36.7338 60.6878C36.8285 60.7266 36.9327 60.7366 37.0332 60.7164C37.1336 60.6962 37.2258 60.6468 37.2979 60.5744C37.3701 60.502 37.419 60.41 37.4385 60.3099C37.458 60.2098 37.4472 60.1062 37.4074 60.0123C37.3676 59.9183 37.3007 59.8382 37.2151 59.7822C37.1295 59.7261 37.0291 59.6967 36.9267 59.6975C36.7902 59.6985 36.6597 59.7532 36.5636 59.8496C36.4675 59.946 36.4136 60.0763 36.4136 60.212Z" fill="#7A5532"/>
<path d="M36.4136 61.8823C36.4128 61.9844 36.4425 62.0844 36.499 62.1697C36.5556 62.2549 36.6363 62.3215 36.731 62.3609C36.8256 62.4004 36.9299 62.4109 37.0307 62.3912C37.1314 62.3715 37.2239 62.3224 37.2965 62.2502C37.369 62.178 37.4184 62.0859 37.4382 61.9857C37.458 61.8855 37.4474 61.7817 37.4078 61.6875C37.3681 61.5934 37.3012 61.513 37.2155 61.4568C37.1299 61.4006 37.0293 61.371 36.9267 61.3718C36.7909 61.3729 36.661 61.427 36.5651 61.5225C36.4691 61.618 36.4147 61.7472 36.4136 61.8823Z" fill="#7A5532"/>
</svg>
