<svg width="92" height="92" viewBox="0 0 92 92" fill="none" xmlns="http://www.w3.org/2000/svg">
<path d="M9 25.5407C9 27.6254 9.6182 29.6634 10.7764 31.3968C11.9346 33.1302 13.5809 34.4812 15.5069 35.279C17.433 36.0768 19.5524 36.2855 21.5971 35.8788C23.6417 35.4721 25.5199 34.4682 26.9941 32.9941C28.4682 31.5199 29.4721 29.6417 29.8788 27.5971C30.2855 25.5524 30.0768 23.433 29.279 21.5069C28.4812 19.5809 27.1302 17.9346 25.3968 16.7764C23.6634 15.6182 21.6254 15 19.5407 15C18.1563 14.9995 16.7854 15.2717 15.5063 15.8013C14.2272 16.3308 13.065 17.1072 12.0861 18.0861C11.1072 19.065 10.3308 20.2272 9.80126 21.5063C9.27174 22.7854 8.99946 24.1563 9 25.5407Z" fill="#845F54"/>
<path d="M15.9778 27.5807C15.9778 28.7112 16.3132 29.8164 16.9416 30.7563C17.5699 31.6961 18.463 32.4285 19.5078 32.8605C20.5525 33.2926 21.702 33.4051 22.8106 33.1836C23.9193 32.9621 24.9374 32.4167 25.7359 31.6164C26.5345 30.8161 27.0777 29.7969 27.2968 28.6878C27.5158 27.5786 27.4009 26.4294 26.9666 25.3856C26.5322 24.3418 25.798 23.4503 24.8568 22.824C23.9156 22.1976 22.8097 21.8646 21.6791 21.867C20.1659 21.8703 18.7158 22.4737 17.6469 23.5449C16.5781 24.616 15.9778 26.0674 15.9778 27.5807Z" fill="#F4E8DF"/>
<path d="M83.1746 25.5407C83.1746 27.6249 82.5567 29.6623 81.399 31.3955C80.2414 33.1286 78.5959 34.4796 76.6705 35.2778C74.7452 36.076 72.6264 36.2854 70.5821 35.8797C68.5377 35.474 66.6595 34.4713 65.1849 32.9984C63.7103 31.5255 62.7054 29.6485 62.2973 27.6046C61.8892 25.5607 62.0962 23.4417 62.8921 21.5155C63.688 19.5892 65.0371 17.9421 66.7689 16.7824C68.5007 15.6227 70.5374 15.0024 72.6216 15C74.007 14.9978 75.3793 15.2689 76.6598 15.7977C77.9403 16.3265 79.104 17.1027 80.0842 18.0817C81.0644 19.0608 81.8419 20.2235 82.3722 21.5034C82.9025 22.7833 83.1752 24.1553 83.1746 25.5407Z" fill="#845F54"/>
<path d="M76.2051 27.5807C76.2051 28.7107 75.87 29.8154 75.2422 30.755C74.6144 31.6946 73.722 32.4269 72.678 32.8594C71.634 33.2918 70.4851 33.405 69.3768 33.1845C68.2685 32.964 67.2504 32.4199 66.4513 31.6208C65.6523 30.8217 65.1081 29.8037 64.8876 28.6953C64.6672 27.587 64.7803 26.4382 65.2128 25.3941C65.6452 24.3501 66.3775 23.4578 67.3171 22.8299C68.2567 22.2021 69.3614 21.867 70.4915 21.867C72.0068 21.867 73.4601 22.469 74.5316 23.5405C75.6031 24.612 76.2051 26.0653 76.2051 27.5807Z" fill="#F4E8DF"/>
<path d="M46.0195 17.4627C20.4148 17.4627 14.7463 37.9858 14.7463 63.6521V83.6662C14.7463 88.2018 18.5718 91.8426 23.1731 91.8426H70.0438C74.6492 91.8426 77.4321 88.1854 77.4321 83.6334V63.6274C77.4527 37.9858 71.9689 17.4627 46.0195 17.4627Z" fill="#845F54"/>
<path d="M42.272 91.8426C43.4473 90.0888 44.0693 88.0226 44.0575 85.9114C44.0575 83.0299 42.9128 80.2663 40.8752 78.2288C38.8377 76.1912 36.0741 75.0465 33.1926 75.0465C30.311 75.0465 27.5475 76.1912 25.5099 78.2288C23.4723 80.2663 22.3276 83.0299 22.3276 85.9114C22.3137 88.0255 22.9358 90.0949 24.1131 91.8508L42.272 91.8426Z" fill="#F4E8DF"/>
<path d="M61.6539 48.3377C65.9228 45.5548 66.169 41.4666 66.169 36.9022C66.169 28.5124 57.0609 21.7151 45.8224 21.7151C34.584 21.7151 25.4799 28.5124 25.4799 36.9022C25.4799 41.6759 25.9725 45.9324 30.5902 48.7195C25.8165 50.977 25.2542 54.4044 25.2542 58.2422C25.2542 65.0353 34.7974 70.5561 46.5736 70.5561C58.3497 70.5561 67.893 65.0476 67.893 58.2422C67.8642 54.1786 66.912 50.5789 61.6539 48.3377Z" fill="#F4E8DF"/>
<path d="M70.1836 91.8426C71.3589 90.0888 71.9809 88.0226 71.9691 85.9114C71.9691 83.0299 70.8244 80.2663 68.7868 78.2288C66.7493 76.1912 63.9857 75.0465 61.1042 75.0465C58.2226 75.0465 55.4591 76.1912 53.4215 78.2288C51.3839 80.2663 50.2392 83.0299 50.2392 85.9114C50.2253 88.0255 50.8474 90.0949 52.0248 91.8508L70.1836 91.8426Z" fill="#F4E8DF"/>
<path d="M57.2416 35.6996C57.2416 37.8955 56.0102 39.6769 54.5243 39.6769C53.0385 39.6769 51.803 37.8955 51.803 35.6996C51.803 33.5036 53.0344 31.7222 54.5243 31.7222C56.0143 31.7222 57.2416 33.5036 57.2416 35.6996Z" fill="black"/>
<path d="M55.4233 37.2922C55.4233 37.9489 55.058 38.4825 54.6024 38.4825C54.1468 38.4825 53.7815 37.9489 53.7815 37.2922C53.7815 36.6354 54.1427 36.0977 54.6024 36.0977C55.0621 36.0977 55.4233 36.6313 55.4233 37.2922Z" fill="white"/>
<path d="M40.5358 35.6996C40.5358 37.8955 39.3044 39.6769 37.8185 39.6769C36.3327 39.6769 35.0972 37.8955 35.0972 35.6996C35.0972 33.5036 36.3286 31.7222 37.8185 31.7222C39.3085 31.7222 40.5358 33.5036 40.5358 35.6996Z" fill="black"/>
<path d="M38.7175 37.2922C38.7175 37.9489 38.3522 38.4825 37.8966 38.4825C37.441 38.4825 37.0757 37.9489 37.0757 37.2922C37.0757 36.6354 37.441 36.0977 37.8966 36.0977C38.3522 36.0977 38.7175 36.6313 38.7175 37.2922Z" fill="white"/>
<path d="M46.7501 45.8708H45.9292V61.0579H46.7501V45.8708Z" fill="#5C3F36"/>
<path d="M46.2371 42.8293C42.0586 42.8293 38.6025 44.6641 38.6025 46.9052C38.6025 48.1366 40.5645 47.5496 42.2105 48.3008C43.5445 48.9083 44.4434 50.9524 46.2371 50.9811C48.1212 50.9524 48.9749 48.9288 50.313 48.3008C51.9549 47.5496 53.8923 48.1448 53.8923 46.9052C53.8923 44.6641 50.4567 42.8416 46.2371 42.8293Z" fill="#845F54"/>
<path d="M55.7063 58.3571C56.1455 59.0138 55.6242 59.7691 55.2302 59.9989C55.5421 59.8266 46.2 65.3678 37.0344 59.3627C36.706 59.1411 36.4967 58.8743 36.5623 58.784C36.6239 58.6896 36.9359 58.784 37.2601 58.9441C39.8742 60.3834 42.8307 61.0842 45.8127 60.9714C48.7946 60.8586 51.6897 59.9364 54.1876 58.3037C54.4913 58.1026 55.3943 57.8933 55.7063 58.3735V58.3571Z" fill="#5C3F36"/>
</svg>
