<svg width="92" height="92" viewBox="0 0 92 92" fill="none" xmlns="http://www.w3.org/2000/svg">
<path d="M46.2854 17.9276C20.6808 17.9276 15 38.3681 15 63.9269V83.8605C15 88.3779 18.8255 92 23.4268 92H70.3098C74.9152 92 77.6981 88.3575 77.6981 83.8442V63.9188C77.7186 38.3681 72.2349 17.9276 46.2854 17.9276Z" fill="#CECECE"/>
<path d="M24.4609 86.5505C23.5359 86.5484 22.6496 86.1809 21.9963 85.5287C21.343 84.8765 20.9761 83.9928 20.9761 83.0716V64.7936C20.9761 30.3718 31.0899 23.3198 46.277 23.3198C59.0629 23.3198 63.697 28.7079 66.3034 33.4052C69.9648 39.987 71.7421 50.2522 71.7421 64.7814V83.1288C71.7415 83.5857 71.6506 84.0379 71.4746 84.4598C71.2986 84.8817 71.0408 85.2649 70.7161 85.5876C70.3913 85.9103 70.006 86.1661 69.582 86.3404C69.158 86.5148 68.7036 86.6042 68.2449 86.6037C58.9438 86.6078 33.7332 86.5751 24.4609 86.5505Z" fill="#AFAFAF"/>
<path d="M30.3103 52.701H29.2472V57.4923C29.292 57.9919 29.1453 58.4899 28.8367 58.8863C28.6975 59.0345 28.528 59.1513 28.3397 59.2288C28.1514 59.3064 27.9486 59.3429 27.7449 59.336C27.5339 59.3481 27.3228 59.3121 27.1279 59.2306C26.933 59.1491 26.7593 59.0244 26.6202 58.8659C26.3215 58.4723 26.1757 57.9845 26.2098 57.4923V46.021C26.1629 45.5103 26.3208 45.0018 26.649 44.6065C26.8451 44.4441 27.0715 44.3218 27.3153 44.2468C27.559 44.1717 27.8152 44.1453 28.0692 44.1691H32.9947C33.5774 44.1642 34.1598 44.1929 34.7392 44.255C35.1912 44.3043 35.6329 44.4229 36.0485 44.6065C36.5106 44.8039 36.9291 45.09 37.2799 45.4487C37.6386 45.8148 37.918 46.2503 38.1009 46.7283C38.2935 47.2196 38.3937 47.742 38.3964 48.2695C38.4443 49.2468 38.1053 50.2038 37.4523 50.9349C36.6582 51.6813 35.6571 52.1727 34.5791 52.3453C35.1652 52.6712 35.6879 53.0991 36.1224 53.6086C36.6094 54.1613 37.0475 54.7549 37.4318 55.3828C37.7734 55.9267 38.0738 56.4951 38.3307 57.0834C38.4967 57.4104 38.6063 57.7628 38.655 58.1259C38.6497 58.3348 38.5842 58.5378 38.4662 58.7105C38.3462 58.9001 38.1813 59.0573 37.9859 59.1684C37.7512 59.2834 37.4922 59.3408 37.2307 59.336C36.9169 59.3521 36.6061 59.2675 36.3441 59.0948C36.1079 58.9324 35.9046 58.7272 35.7448 58.4898C35.5806 58.2486 35.3343 57.8888 35.0675 57.4146L33.8362 55.3991C33.4979 54.8025 33.1064 54.2374 32.6663 53.7108C32.3837 53.3694 32.0254 53.0979 31.6197 52.9177C31.2005 52.765 30.7565 52.6916 30.3103 52.701ZM32.0465 46.438H29.2472V50.5261H31.9645C32.5828 50.5386 33.2004 50.4754 33.8033 50.3381C34.2394 50.2476 34.6366 50.0248 34.9403 49.7003C35.2213 49.3543 35.367 48.9186 35.3508 48.4739C35.3618 48.0876 35.2531 47.7072 35.0393 47.3846C34.8256 47.062 34.5173 46.8129 34.1563 46.671C33.471 46.4768 32.7579 46.398 32.0465 46.438Z" fill="#35312F"/>
<path d="M44.5984 57.4923V45.7267C44.5579 45.2351 44.7044 44.7463 45.0089 44.3572C45.1451 44.2069 45.3127 44.088 45.4998 44.0089C45.687 43.9298 45.8893 43.8924 46.0925 43.8993C46.2987 43.8919 46.5041 43.9281 46.6951 44.0056C46.8862 44.0831 47.0585 44.2002 47.2007 44.349C47.5057 44.741 47.6522 45.2325 47.6112 45.7267V57.4923C47.6518 57.989 47.5055 58.4829 47.2007 58.8781C47.0602 59.0297 46.8884 59.1492 46.6971 59.2282C46.5057 59.3072 46.2995 59.344 46.0925 59.336C45.8897 59.3415 45.6881 59.3031 45.5017 59.2233C45.3153 59.1435 45.1485 59.0244 45.013 58.8741C44.7063 58.4812 44.5584 57.9883 44.5984 57.4923Z" fill="#35312F"/>
<path d="M59.8798 53.2733H57.101V57.4923C57.1409 57.9851 56.9945 58.475 56.6905 58.8659C56.5553 59.0182 56.3882 59.1392 56.201 59.2204C56.0138 59.3016 55.811 59.3411 55.6069 59.336C55.4002 59.3434 55.1944 59.306 55.0037 59.2262C54.813 59.1464 54.6421 59.0263 54.5028 58.874C54.2014 58.4866 54.0551 58.0014 54.0923 57.5127V46.021C54.0667 45.7645 54.0942 45.5055 54.1733 45.2601C54.2524 45.0146 54.3813 44.788 54.552 44.5943C54.9711 44.2818 55.4921 44.1361 56.0133 44.1855H59.9044C60.7976 44.156 61.6907 44.2453 62.5601 44.4512C63.1475 44.6067 63.6911 44.8948 64.1486 45.2933C64.5951 45.6889 64.9423 46.1831 65.1625 46.7364C65.4037 47.3495 65.5222 48.0036 65.5114 48.6619C65.5114 50.1786 65.0434 51.3315 64.1035 52.1123C63.1635 52.8931 61.7392 53.2733 59.8798 53.2733ZM59.1451 46.438H57.0928V50.9922H59.1451C59.7506 51.0063 60.355 50.9319 60.9388 50.7714C61.3746 50.651 61.7592 50.3927 62.0347 50.0355C62.3019 49.6452 62.4344 49.1789 62.4124 48.7069C62.4372 48.1147 62.2279 47.5365 61.8295 47.0962C61.3944 46.6601 60.4996 46.4407 59.1451 46.438Z" fill="#35312F"/>
<path d="M66.915 92C68.1388 90.224 68.7837 88.1157 68.7621 85.9619C68.7659 82.9932 67.5855 80.1447 65.4806 78.0428C63.3757 75.941 60.5186 74.7581 57.538 74.7543C54.5574 74.7505 51.6973 75.9262 49.587 78.0226C47.4767 80.1191 46.289 82.9646 46.2852 85.9332C46.2638 88.096 46.9084 90.2133 48.1323 92H66.915Z" fill="#51453C"/>
<path d="M49.1461 86.2971C49.1477 84.8316 49.4399 83.3809 50.006 82.0282C50.572 80.6755 51.4008 79.4475 52.4446 78.4147C53.4885 77.3819 54.7269 76.5646 56.0888 76.0097C57.4506 75.4549 58.9091 75.1734 60.3805 75.1815C58.7238 74.7503 56.9902 74.7014 55.3117 75.0384C53.6332 75.3755 52.0541 76.0898 50.6947 77.1267C49.3354 78.1636 48.2315 79.4959 47.4674 81.022C46.7032 82.5482 46.2989 84.2279 46.2852 85.9332C46.2638 88.096 46.9084 90.2133 48.1323 92H50.7551C49.6889 90.2885 49.131 88.3112 49.1461 86.2971Z" fill="#917957"/>
<path d="M57.5279 74.8176C57.5279 73.6403 56.941 68.8735 64.3991 69.5031" stroke="#35312F" stroke-width="2" stroke-miterlimit="10"/>
<path d="M60.7666 72.1727C62.2401 72.1727 63.4346 70.983 63.4346 69.5154C63.4346 68.0478 62.2401 66.8581 60.7666 66.8581C59.2931 66.8581 58.0986 68.0478 58.0986 69.5154C58.0986 70.983 59.2931 72.1727 60.7666 72.1727Z" fill="#C98181"/>
<path d="M61.3824 71.7843C62.5158 71.7843 63.4347 70.86 63.4347 69.7198C63.4347 68.5796 62.5158 67.6553 61.3824 67.6553C60.2489 67.6553 59.3301 68.5796 59.3301 69.7198C59.3301 70.86 60.2489 71.7843 61.3824 71.7843Z" fill="#FFB0B0"/>
<path d="M63.4346 69.5154C64.9081 69.5154 66.1026 68.3257 66.1026 66.8581C66.1026 65.3906 64.9081 64.2009 63.4346 64.2009C61.9611 64.2009 60.7666 65.3906 60.7666 66.8581C60.7666 68.3257 61.9611 69.5154 63.4346 69.5154Z" fill="#C98181"/>
<path d="M63.4346 69.5154C64.5681 69.5154 65.4869 68.5545 65.4869 67.3691C65.4869 66.1838 64.5681 65.2229 63.4346 65.2229C62.3012 65.2229 61.3823 66.1838 61.3823 67.3691C61.3823 68.5545 62.3012 69.5154 63.4346 69.5154Z" fill="#FFB0B0"/>
<path d="M66.1026 72.1727C67.5761 72.1727 68.7706 70.983 68.7706 69.5154C68.7706 68.0478 67.5761 66.8581 66.1026 66.8581C64.6291 66.8581 63.4346 68.0478 63.4346 69.5154C63.4346 70.983 64.6291 72.1727 66.1026 72.1727Z" fill="#C98181"/>
<path d="M65.4869 71.7843C66.6203 71.7843 67.5392 70.86 67.5392 69.7198C67.5392 68.5796 66.6203 67.6553 65.4869 67.6553C64.3534 67.6553 63.4346 68.5796 63.4346 69.7198C63.4346 70.86 64.3534 71.7843 65.4869 71.7843Z" fill="#FFB0B0"/>
<path d="M63.4346 74.8299C64.9081 74.8299 66.1026 73.6402 66.1026 72.1727C66.1026 70.7051 64.9081 69.5154 63.4346 69.5154C61.9611 69.5154 60.7666 70.7051 60.7666 72.1727C60.7666 73.6402 61.9611 74.8299 63.4346 74.8299Z" fill="#C98181"/>
<path d="M63.4343 73.8447C64.6313 73.8447 65.6016 72.8838 65.6016 71.6984C65.6016 70.5131 64.6313 69.5522 63.4343 69.5522C62.2374 69.5522 61.2671 70.5131 61.2671 71.6984C61.2671 72.8838 62.2374 73.8447 63.4343 73.8447Z" fill="#FFB0B0"/>
<path d="M63.4347 69.4786C63.4347 69.4132 63.4347 69.3437 63.4347 69.2742C62.7289 69.2774 62.053 69.5587 61.5546 70.0566C61.0563 70.5544 60.776 71.2285 60.7749 71.9315C60.7749 71.9601 60.7749 71.9887 60.7749 72.0173C60.9693 72.0954 61.1769 72.1356 61.3865 72.1359C62.5112 72.1359 63.4347 70.9462 63.4347 69.4786Z" fill="#C98181"/>
<path d="M63.3727 69.2251C62.711 69.2428 62.0789 69.5028 61.5974 69.9552C61.1158 70.4077 60.8185 71.021 60.7622 71.678C60.9581 71.7433 61.1631 71.7778 61.3697 71.7802C61.766 71.7768 62.1529 71.6592 62.4836 71.4416C62.8143 71.2239 63.0747 70.9156 63.2332 70.5538C63.3388 70.2395 63.3996 69.9119 63.4138 69.5808C63.4087 69.4614 63.395 69.3425 63.3727 69.2251Z" fill="#FFB0B0"/>
<path d="M63.5862 70.4802C64.1529 70.4802 64.6124 70.0226 64.6124 69.4581C64.6124 68.8937 64.1529 68.4361 63.5862 68.4361C63.0195 68.4361 62.5601 68.8937 62.5601 69.4581C62.5601 70.0226 63.0195 70.4802 63.5862 70.4802Z" fill="#51453C"/>
</svg>
